<svg width="56" height="56" viewBox="0 0 56 56" fill="none" xmlns="http://www.w3.org/2000/svg">
  <g clip-path="url(#clip0_6875_81242)">
    <path
      d="M0.561095 0.153534C-0.0185822 0.470716 0.0142297 -0.688639 0.00329239 20.8907C0.00329239 43.2028 -0.0623314 41.2997 0.725155 41.6278C1.04234 41.7591 1.15171 41.7591 1.46889 41.6278C2.25638 41.2997 2.19075 43.1262 2.19075 21.5797V2.18787H21.1123H40.0338V15.5751V28.9624L36.6761 34.1904L33.3183 39.4075L32.8699 41.6387L32.4324 43.87L31.4481 43.8918C30.5403 43.9137 30.3981 43.9465 29.6981 44.3293C29.2825 44.5481 28.8997 44.734 28.8559 44.734C28.8122 44.734 28.7684 44.5262 28.7684 44.2637C28.7684 44.0121 28.7028 43.5309 28.6153 43.1918C28.1231 41.1028 26.4388 40.2497 24.4482 41.07C23.1904 41.595 20.8935 43.4981 19.6904 45.0074C18.7498 46.1887 17.9405 47.5668 17.9405 47.9824C17.9405 48.7042 18.7936 49.2183 19.5154 48.9339C19.6139 48.8902 20.0733 48.2996 20.5326 47.5996C22.217 45.0512 25.4107 42.4262 26.1216 43.0168C26.5481 43.3668 26.6247 43.8481 26.6247 46.1887L26.6356 48.4746L26.9419 48.7371C27.27 49.0214 27.8497 49.087 28.2215 48.8902C28.3309 48.8355 28.6044 48.4964 28.8122 48.1355C29.359 47.2496 30.3871 46.309 31.0434 46.1121C31.3277 46.0355 31.5902 45.9809 31.6449 46.0137C31.6887 46.0355 31.7215 46.5933 31.7215 47.2496V48.4308L32.0605 48.7152C32.7496 49.2949 32.8371 49.262 36.5667 46.5933C38.4261 45.2699 39.9573 44.1871 39.9901 44.1871C40.012 44.1871 40.0338 46.3527 40.0338 48.9996V53.812H21.1232H2.20169L2.16888 51.7776L2.13607 49.7433L1.82982 49.4808C1.41421 49.1199 0.779841 49.1199 0.364224 49.4808L0.0579789 49.7433L0.025167 52.4011C0.00329239 54.2713 0.025167 55.1463 0.123603 55.3651C0.407973 56.0432 -1.03575 55.9994 21.1014 55.9994C35.4183 55.9994 41.4119 55.9666 41.5979 55.8791C41.7401 55.8135 41.9369 55.6276 42.0354 55.4526C42.1994 55.1791 42.2213 54.4682 42.2213 48.048V40.9388L48.7946 30.7233C52.4149 25.1015 55.4883 20.2563 55.6414 19.9391C56.0351 19.097 56.0898 18.047 55.8054 17.1064C55.0726 14.733 52.6446 13.5517 50.2821 14.4377C49.1446 14.8642 48.8493 15.2361 45.4369 20.5516L42.276 25.4734L42.2213 13.0924C42.1666 -0.294896 42.1994 0.394155 41.5979 0.120722C41.4119 0.0332237 35.2542 0.000411807 21.0795 0.000411807C4.47665 0.0113491 0.779841 0.0332237 0.561095 0.153534ZM52.9508 16.6689C53.7383 17.1939 54.0227 18.211 53.5961 19.086C53.2133 19.8844 53.3227 19.9063 51.6164 18.8126C50.7524 18.2548 50.0087 17.7735 49.954 17.7298C49.9102 17.686 50.0196 17.4345 50.2055 17.1829C50.8727 16.2751 52.0211 16.0564 52.9508 16.6689ZM50.4024 20.6172C51.2555 21.1532 51.9555 21.6344 51.9555 21.6782C51.9555 21.8094 39.2682 41.5075 39.1589 41.5403C39.0823 41.5731 36.2058 39.7903 35.8995 39.5388C35.8667 39.506 47.5478 21.2516 48.3681 20.0376C48.554 19.7751 48.729 19.5782 48.7727 19.6001C48.8165 19.6219 49.5493 20.0704 50.4024 20.6172ZM36.7308 42.6559C37.1573 42.9293 37.5073 43.17 37.5073 43.2028C37.5073 43.2575 34.5105 45.3902 34.4339 45.3902C34.3902 45.3902 34.8933 42.6012 35.0574 41.9122L35.123 41.6606L35.5277 41.9122C35.7574 42.0544 36.2933 42.3825 36.7308 42.6559Z"
      fill="currentColor"/>
    <path
      d="M7.6588 5.43934C7.45099 5.64715 7.33068 5.92058 7.27599 6.23776C7.24318 6.50026 7.22131 9.81426 7.24318 13.5876L7.27599 20.4672L7.63692 20.7844L7.98692 21.1016H14.3852C18.9242 21.1016 20.8492 21.0688 21.0461 20.9813C21.6695 20.6969 21.6695 20.7844 21.6367 12.9533L21.6039 5.76746L21.2429 5.45028L20.8929 5.1331H14.429H7.96504L7.6588 5.43934ZM19.4711 11.2033C19.4711 14.7907 19.4273 15.3485 19.1977 14.9767C19.1539 14.911 18.782 14.6923 18.3664 14.4845C17.9508 14.2657 17.6117 14.0798 17.6117 14.0579C17.6117 14.0361 17.7211 13.7845 17.8524 13.4892C18.0383 13.0845 18.093 12.7345 18.1039 12.0673C18.1039 11.2689 18.0711 11.1049 17.7211 10.4377C16.9993 9.02678 15.7633 8.33773 14.1774 8.43616C11.5962 8.61116 9.99938 11.3783 11.1478 13.6861L11.3447 14.1017L10.7541 14.3751C10.4259 14.5173 10.0213 14.7361 9.84626 14.8673C9.6822 14.9876 9.5072 15.086 9.47439 15.086C9.44158 15.086 9.40877 13.3361 9.40877 11.2033V7.32056H14.4399H19.4711V11.2033ZM15.2165 10.7877C15.6868 11.0611 16.0258 11.772 15.9274 12.2861C15.7633 13.1283 14.8774 13.7189 14.0681 13.5111C13.3243 13.3251 12.8103 12.4392 13.0181 11.6955C13.1384 11.2908 13.4993 10.8424 13.8384 10.7111C14.2102 10.558 14.8774 10.5908 15.2165 10.7877ZM16.2665 16.0048C17.8196 16.4204 18.9023 17.3501 19.2523 18.575L19.3508 18.9141H14.4837C9.01502 18.9141 9.4197 18.9907 9.84626 18.0719C10.2838 17.0876 11.4869 16.2454 12.7993 15.972C13.1275 15.9063 13.4993 15.8298 13.6196 15.8079C13.9915 15.7204 15.6758 15.8407 16.2665 16.0048Z"
      fill="currentColor"/>
    <path
      d="M26.0222 7.65316C25.4972 8.18909 25.6394 9.03126 26.3066 9.35938C26.6128 9.50156 27.3019 9.52344 30.8456 9.52344C33.7002 9.52344 35.0892 9.47969 35.2533 9.40313C35.9423 9.05313 36.0955 8.18909 35.5595 7.65316L35.2424 7.33598H30.7909H26.3394L26.0222 7.65316Z"
      fill="currentColor"/>
    <path
      d="M26.0234 12.4553C25.5859 12.8928 25.5859 13.4287 26.0234 13.91L26.3406 14.2709L30.4859 14.3037C32.7608 14.3256 34.7842 14.3037 34.992 14.2709C35.8561 14.1068 36.1842 13.0787 35.5608 12.4553L35.2436 12.1381H30.7921H26.3406L26.0234 12.4553Z"
      fill="currentColor"/>
    <path
      d="M26.0234 17.2687C25.5859 17.7062 25.5859 18.2421 26.0234 18.7234L26.3406 19.0843L30.5405 19.1171C33.3514 19.139 34.8608 19.1171 35.1342 19.0296C35.8998 18.8109 36.1295 17.8484 35.5608 17.2687L35.2436 16.9515H30.7921H26.3406L26.0234 17.2687Z"
      fill="currentColor"/>
    <path
      d="M8.0308 24.2769C7.49487 24.605 7.44019 24.9222 7.44019 27.9409C7.44019 31.1127 7.49487 31.3424 8.24955 31.5939C8.5886 31.7033 11.4542 31.7252 21.954 31.7033L35.2428 31.6705L35.56 31.3096L35.8772 30.9596V27.9409C35.8772 24.605 35.8444 24.4081 35.21 24.1894C34.9584 24.1019 31.032 24.0691 21.6149 24.0691C8.78547 24.0691 8.35892 24.08 8.0308 24.2769ZM33.6897 27.8971V29.5377L21.6915 29.5159L9.68233 29.483L9.64952 28.0174C9.63858 27.2081 9.64952 26.4753 9.6714 26.3987C9.71515 26.2784 11.9792 26.2565 21.7134 26.2565H33.6897V27.8971Z"
      fill="currentColor"/>
    <path
      d="M8.19457 35.2078C7.75708 35.6453 7.75708 36.1813 8.19457 36.6625L8.51176 37.0234H16.496H24.4802L24.7646 36.7609C25.1037 36.4328 25.224 35.9625 25.049 35.536C24.7646 34.8688 25.049 34.8907 16.4085 34.8907H8.51176L8.19457 35.2078Z"
      fill="currentColor"/>
    <path
      d="M8.19457 39.8094C7.75708 40.2469 7.75708 40.7828 8.19457 41.2641L8.51176 41.625H12.5039H16.496L16.7804 41.3625C17.2944 40.8813 17.2616 40.1375 16.6929 39.6891C16.4851 39.5141 16.0913 39.4922 12.4929 39.4922H8.51176L8.19457 39.8094Z"
      fill="currentColor"/>
    <path
      d="M0.560977 44.5516C0.232857 44.7375 0.0141111 45.1203 0.00317383 45.525C0.00317383 45.9734 0.6266 46.5859 1.0969 46.5859C1.54533 46.5859 2.19064 45.9734 2.19064 45.5578C2.19064 44.6828 1.31565 44.136 0.560977 44.5516Z"
      fill="currentColor"/>
  </g>
  <defs>
    <clipPath id="clip0_6875_81242">
      <rect width="56" height="56" fill="white"/>
    </clipPath>
  </defs>
</svg>
