<svg width="66" height="56" viewBox="0 0 66 56" fill="none" xmlns="http://www.w3.org/2000/svg">
  <path
    d="M22.2076 0.254135C21.275 0.578239 20.4701 1.29127 20.0357 2.1858L19.6779 2.92476L19.6396 8.8494L19.6013 14.787L15.9983 17.7817C14.018 19.4282 12.3315 20.9061 12.2421 21.0487C12.1271 21.2691 12.0888 23.1619 12.076 28.6846V36.0483H9.07358C5.84117 36.0483 5.54731 36.1002 5.22791 36.7095C4.89572 37.3836 5.07459 38.0578 5.68785 38.4208C5.99448 38.6152 6.47998 38.6412 9.0608 38.6412H12.076V45.6289C12.076 53.8352 12.0377 53.5241 13.2898 54.7946C14.6185 56.1428 11.9866 56.0262 39.1618 55.9873L62.8619 55.9484L63.4624 55.6502C64.2034 55.2742 65.0083 54.4575 65.3788 53.6926L65.6727 53.0963L65.711 37.2151C65.7366 22.2674 65.7238 21.308 65.5194 20.9839C65.3916 20.7894 63.6924 19.3115 61.7504 17.704L58.1985 14.774V9.01794C58.1985 3.52111 58.1858 3.22294 57.9302 2.5488C57.6108 1.6802 56.7676 0.746773 55.9244 0.357849C55.3366 0.085598 55.1706 0.0726357 49.5873 0.033741C43.3908 -0.00514984 43.263 0.0078125 42.9308 0.668987C42.6881 1.12274 42.6881 1.48573 42.9181 1.93948C43.2502 2.58769 43.3652 2.60065 49.2679 2.60065H54.7745L55.2089 3.04144L55.6433 3.48222V15.2667L55.6305 27.0382L47.2748 33.4814L38.9063 39.9246L31.5982 34.2722C27.5737 31.1738 23.8047 28.2698 23.2297 27.829L22.1821 27.0382L22.1693 15.2537V3.48222L22.6037 3.04144L23.0381 2.60065H28.5447C34.4474 2.60065 34.5623 2.58769 34.8945 1.93948C35.2395 1.26534 34.9967 0.448597 34.3707 0.163383C34.1279 0.0467072 32.5181 0.0078125 28.4553 0.0078125C23.4342 0.0207787 22.8081 0.033741 22.2076 0.254135ZM19.5502 24.8732C19.4735 24.951 15.4873 21.8914 15.449 21.7099C15.4234 21.6451 16.3433 20.8283 17.4804 19.8949L19.5502 18.1966L19.5885 21.5025C19.6013 23.3175 19.5885 24.8343 19.5502 24.8732ZM60.6771 20.1672C61.6226 20.945 62.3892 21.6451 62.3636 21.7229C62.3253 21.8655 58.4413 24.8991 58.3008 24.8991C58.2369 24.8991 58.1985 23.3823 58.1985 21.5154V18.1447L58.5691 18.4429C58.7735 18.6115 59.7189 19.3763 60.6771 20.1672ZM22.1693 30.2533C26.1427 33.3129 29.4646 35.8927 29.5412 35.9705C29.669 36.0872 27.9953 37.8633 22.1693 43.762L14.6313 51.4109V37.9541C14.6313 27.2197 14.6696 24.5102 14.7974 24.6009C14.874 24.6528 18.1959 27.1938 22.1693 30.2533ZM63.1558 44.5917L63.1174 51.3461L55.6049 43.7231L48.0925 36.1002L55.6049 30.3052L63.1174 24.5102L63.1558 31.1738C63.1685 34.8426 63.1685 40.884 63.1558 44.5917ZM34.4346 39.7302C35.7378 40.7284 37.1559 41.8304 37.6031 42.1674C38.2291 42.6471 38.5102 42.7897 38.8807 42.7897C39.4429 42.7897 39.2513 42.9193 42.867 40.132C44.4512 38.9134 45.8055 37.8763 45.8822 37.8244C45.946 37.7855 49.4851 41.2729 53.7396 45.59L61.4565 53.4204H38.9063H16.3561L24.073 45.59C28.3275 41.2729 31.8665 37.7855 31.9304 37.8244C32.0071 37.8763 33.1314 38.7319 34.4346 39.7302Z"
    fill="currentColor"/>
  <path
    d="M38.2804 0.182406C37.1688 0.804689 37.6415 2.59375 38.9064 2.59375C39.558 2.59375 40.184 1.9585 40.184 1.31029C40.184 0.337977 39.1236 -0.29727 38.2804 0.182406Z"
    fill="currentColor"/>
  <path
    d="M36.8626 8.50211C33.5918 9.20218 30.9599 11.3283 29.5289 14.4138C28.8007 15.9695 28.6218 16.8251 28.6218 18.8087C28.6218 20.7922 28.8007 21.6608 29.5162 23.1776C30.8449 26.0557 33.183 28.0651 36.1854 28.9467C37.6164 29.3615 40.1972 29.3615 41.6281 28.9467C45.1927 27.9095 47.8757 25.1871 48.8979 21.57C49.3067 20.118 49.3067 17.4993 48.8979 16.0473C47.8757 12.4303 45.0522 9.5911 41.5259 8.61879C40.4783 8.33358 37.923 8.26875 36.8626 8.50211ZM40.6443 11.095C45.5249 12.2617 48.0929 17.7067 45.921 22.2312C44.0301 26.1723 39.4306 27.8188 35.5594 25.939C31.752 24.0981 30.0656 19.4698 31.7904 15.5546C32.7358 13.4155 34.8311 11.6524 37.0925 11.095C38.0635 10.8616 39.6861 10.8616 40.6443 11.095Z"
    fill="currentColor"/>
  <path
    d="M39.9794 17.276L38.2673 18.9873L37.3858 18.1187C36.6447 17.3927 36.4275 17.2501 36.057 17.2501C35.546 17.2501 34.9838 17.652 34.805 18.1317C34.5878 18.7151 34.8816 19.2207 36.3381 20.6597C37.6669 21.995 37.7435 22.0469 38.2673 22.0469C38.8167 22.0469 38.855 22.0209 41.1292 19.7133L43.4418 17.3798V16.7834C43.4418 16.0056 42.9946 15.5648 42.2024 15.5648C41.6914 15.5648 41.602 15.6426 39.9794 17.276Z"
    fill="currentColor"/>
  <path
    d="M0.972593 44.534C0.129355 45.0136 0.116579 46.2323 0.959816 46.7249C1.26645 46.9194 1.80305 46.9453 5.04824 46.9453C8.01235 46.9453 8.84281 46.9064 9.12389 46.7638C9.96712 46.3101 9.96712 44.9877 9.12389 44.534C8.62561 44.2747 1.43254 44.2747 0.972593 44.534Z"
    fill="currentColor"/>
</svg>
