<svg width="56" height="56" viewBox="0 0 56 56" fill="none" xmlns="http://www.w3.org/2000/svg">
  <g clip-path="url(#clip0_6875_82706)">
    <path
      d="M27.1626 0.366152L26.7886 0.738493V3.48725C26.7886 6.48789 26.8326 6.72881 27.3937 6.98069C27.9217 7.22162 28.4168 7.10115 28.7909 6.63025C28.9669 6.42218 28.9889 6.09364 28.9889 3.64057C28.9889 0.661835 28.9559 0.420908 28.4278 0.147128C27.9327 -0.104751 27.5697 -0.0390434 27.1626 0.366152Z"
      fill="currentColor"/>
    <path
      d="M9.17488 0.638024C8.92184 0.889903 8.85583 1.05417 8.85583 1.42651C8.85583 1.89742 8.87784 1.91932 11.1442 4.17527L13.4325 6.45312H13.9386C14.4887 6.45312 14.9507 6.11364 15.0388 5.65369C15.1488 5.06232 14.9177 4.75568 12.6734 2.53259C10.4621 0.353292 10.4181 0.320439 9.967 0.320439C9.59294 0.320439 9.42792 0.386146 9.17488 0.638024Z"
      fill="currentColor"/>
    <path
      d="M45.0953 0.638023C44.8642 0.813242 43.7861 1.83171 42.7189 2.91588C40.8266 4.82139 40.7606 4.909 40.7606 5.3361C40.7606 5.65369 40.8376 5.87271 41.0467 6.11364C41.2887 6.39837 41.4097 6.45312 41.8388 6.45312H42.3449L44.6332 4.17527C46.8995 1.91932 46.9215 1.89741 46.9215 1.42651C46.9215 1.05417 46.8555 0.889901 46.6025 0.638023C46.1734 0.210925 45.6674 0.210925 45.0953 0.638023Z"
      fill="currentColor"/>
    <path
      d="M23.5215 9.12849C23.2795 9.20515 22.9164 9.38037 22.7404 9.51178C22.4323 9.71986 22.3553 9.73081 21.8383 9.6213C20.111 9.24895 18.1747 10.3331 17.5476 12.0196C17.3606 12.5124 17.3166 12.83 17.3496 13.5418L17.3826 14.4289L16.9975 14.5493C16.4034 14.7246 15.5783 15.305 15.2153 15.8087C14.5882 16.6629 14.4232 17.1557 14.4232 18.2509V19.2474L13.8401 19.4883C13.0479 19.8169 12.2668 20.5397 11.8818 21.3172C11.5847 21.8867 11.5517 22.0619 11.5517 22.9927C11.5517 23.9017 11.5847 24.0988 11.8488 24.5916L12.1348 25.1611L11.6837 25.3582C10.9906 25.6648 10.1325 26.5847 9.83547 27.3404C9.47241 28.2822 9.49442 29.4102 9.89047 30.2753C10.0555 30.6367 10.3415 31.0966 10.5396 31.2938L10.8806 31.6442L9.07635 33.4621C7.49212 35.0281 7.22808 35.2581 6.98604 35.2143C5.73185 34.9405 5.52282 34.9186 4.91773 35.05C3.90558 35.2581 3.48752 35.5319 1.96929 37.0541C0.19803 38.8282 0 39.1677 0 40.5695C0 42.015 0.209031 42.3764 2.17832 44.3148C3.70755 45.837 3.77356 45.8808 4.22463 45.8808C4.85172 45.8808 5.3358 45.4318 5.3358 44.8404C5.3358 44.4681 5.21478 44.3038 3.80657 42.8692C1.61724 40.6461 1.61724 40.5695 3.61954 38.5654L4.96174 37.2293H5.52282C6.0179 37.2293 6.16092 37.2841 6.62299 37.6564C6.90903 37.8864 9.75845 40.6899 12.9599 43.8767C17.3386 48.2463 18.7908 49.7685 18.8678 50.0423C19.0658 50.7431 18.8678 51.0936 17.4706 52.4734C16.0514 53.8642 15.6993 54.0504 14.9842 53.7547C14.7972 53.6781 13.9611 52.9553 13.136 52.1559C11.7608 50.8198 11.5957 50.6993 11.2217 50.6993C10.6276 50.6993 10.1765 51.1812 10.1765 51.8164C10.1765 52.2763 10.2095 52.3201 11.8048 53.8861C13.7521 55.8026 14.0821 55.9997 15.4573 55.9997C16.8655 56.0107 17.4376 55.6931 19.1649 53.9628C20.8151 52.2982 21.1231 51.7507 21.1121 50.4803C21.1121 49.9109 21.0351 49.4728 20.8701 49.0567L20.6281 48.4543L22.7404 46.3517C24.1266 44.9609 24.9847 44.1943 25.2158 44.1177C25.4578 44.041 26.4589 44.0191 28.1862 44.0629L30.8046 44.1286L33.0379 46.3517L35.2713 48.5748L35.0842 49.0567C34.9742 49.3414 34.8972 49.8889 34.8862 50.3708C34.8752 51.663 35.2273 52.2873 36.9875 53.9957C38.7148 55.6821 39.0998 55.8902 40.431 55.9012C42.1473 55.9012 41.6412 56.3064 48.9353 49.0676C56.2954 41.7631 55.9983 42.1245 55.9983 40.4599C55.9983 39.551 55.9653 39.4196 55.6243 38.7954C55.3603 38.3026 54.8542 37.7221 53.853 36.7584C52.6869 35.6086 52.3568 35.3567 51.8067 35.1486C51.0036 34.8529 49.8264 34.831 49.1333 35.1048L48.6603 35.291L46.834 33.4731L45.0187 31.6661L45.4368 31.0966C45.6568 30.79 45.9428 30.2315 46.0639 29.8592C46.625 28.096 45.7228 26.1029 44.0066 25.3034C43.7315 25.172 43.4345 25.0735 43.3355 25.0735C43.2144 25.0735 43.1814 25.0078 43.2474 24.8325C43.3795 24.4054 43.3025 23.1461 43.1154 22.6533C42.6974 21.591 41.7292 20.6382 40.7611 20.3535L40.376 20.233V19.1817C40.376 18.2399 40.343 18.0428 40.068 17.4952C39.6829 16.7286 38.7588 15.8635 38.0437 15.6007L37.5046 15.4145L37.5156 14.407C37.5156 13.5528 37.4716 13.3228 37.2295 12.7971C36.5584 11.3735 35.4803 10.6836 33.665 10.5083C33.0599 10.4536 31.0026 10.1141 29.0993 9.74176C25.2818 9.00803 24.2256 8.89851 23.5215 9.12849ZM27.7791 11.7349C29.1433 11.9868 30.2765 12.2058 30.3095 12.2277C30.3315 12.2496 29.7154 12.9067 28.9343 13.6842L27.5151 15.0969L27.075 14.856C26.3819 14.4836 24.7977 12.8519 24.4456 12.151C24.2806 11.8225 24.1486 11.4501 24.1486 11.3406C24.1486 11.1545 24.2146 11.1435 24.7317 11.1983C25.0397 11.2421 26.4149 11.472 27.7791 11.7349ZM21.8383 11.932C21.9263 11.9758 22.0913 12.2496 22.1903 12.5343C22.8174 14.2208 24.9187 16.3234 26.833 17.1886C27.4711 17.4733 27.5591 17.5609 27.6581 17.9223C27.8892 18.7546 27.3171 19.7293 26.514 19.8826C25.5788 20.0578 25.5018 20.0031 22.5754 17.101C21.0681 15.6116 19.7699 14.2646 19.6819 14.1003C19.4619 13.6732 19.4839 12.9286 19.7479 12.5015C20.155 11.8444 21.1672 11.5706 21.8383 11.932ZM34.2371 12.819C34.7102 12.9943 35.1392 13.4652 35.2713 13.9251C35.4693 14.6808 35.2823 15.0202 33.83 16.4768C32.5429 17.78 32.5098 17.8238 32.5098 18.3056C32.5098 18.9627 32.9169 19.3788 33.588 19.3788C34.0171 19.3788 34.1161 19.3131 34.9082 18.5575C35.7883 17.7252 36.1514 17.5171 36.6685 17.5171C37.1085 17.5171 37.8016 17.9661 38.0217 18.3932C38.4947 19.2803 38.1867 19.9702 36.6795 21.4048C36.1734 21.8867 35.6673 22.4014 35.5683 22.5547C35.0732 23.2665 35.5903 24.1974 36.4704 24.1974C36.8885 24.1974 36.9985 24.1317 37.8346 23.3322C38.4287 22.7628 38.8578 22.4452 39.0998 22.3904C39.8479 22.2262 40.585 22.5656 40.9261 23.2118C41.1241 23.5841 41.1461 24.3288 40.9701 24.6683C40.9041 24.7997 40.31 25.4568 39.6499 26.1248C38.5167 27.2747 38.4507 27.3623 38.4507 27.7894C38.4507 28.4026 38.7918 28.7859 39.4079 28.8735C39.8589 28.9283 39.8919 28.9174 40.6181 28.2274C41.7842 27.1104 42.3563 26.9242 43.1924 27.3951C43.7755 27.7237 44.1056 28.4026 44.0066 29.0378C43.9296 29.454 43.7425 29.6839 42.3453 31.1076C40.8381 32.6298 40.7611 32.7284 40.7611 33.1445C40.7611 33.8564 41.4322 34.4039 42.1143 34.2287C42.2573 34.1958 42.6094 33.9659 42.8954 33.714L43.4235 33.254L45.1947 35.0172L46.977 36.7913L41.8832 41.8507L36.8005 46.9212L34.9852 45.1142L33.1589 43.2963L34.1601 42.3107C35.2163 41.2594 35.3153 41.0404 34.9962 40.4161C34.8092 40.0767 34.4021 39.8576 33.9181 39.8576C33.654 39.8576 33.423 40.0109 32.7959 40.6242C31.5087 41.8617 30.8596 42.026 27.9882 41.8398C26.0629 41.7193 24.9627 41.8069 24.1706 42.1574C23.7855 42.3217 23.0704 42.9678 21.3762 44.6433L19.0988 46.8993L14.0381 41.8836C11.2437 39.1239 8.96634 36.8132 8.96634 36.7475C8.96634 36.6818 9.75845 35.8385 10.7156 34.8858L12.4649 33.1445L13.0039 33.3745C14.1041 33.8454 15.2923 33.7797 16.3814 33.1993C17.3496 32.6736 18.1417 31.5456 18.2847 30.4615C18.3617 29.892 18.4498 29.7825 18.8898 29.7825C19.4289 29.7825 20.386 29.3444 20.9471 28.8407C21.5962 28.2603 22.0473 27.3951 22.1573 26.5847L22.2233 26.0043L22.8064 25.9386C23.6205 25.8291 24.4897 25.3801 25.0727 24.734C25.5788 24.1755 26.0189 23.2227 26.0189 22.6861C26.0189 22.2481 26.1289 22.1604 26.734 22.0728C27.9552 21.9195 29.0553 21.0544 29.6274 19.8388C30.0235 18.9846 30.0345 17.7362 29.6494 16.882L29.3964 16.2906L30.9806 14.7136C32.9059 12.7971 33.401 12.5015 34.2371 12.819ZM18.6258 16.6301C19.0108 16.7505 22.7624 20.233 23.4445 21.1201C24.3246 22.259 23.6205 23.7593 22.2233 23.7593C22.0033 23.7593 21.7172 23.7046 21.5852 23.6389C21.4532 23.5732 20.32 22.4999 19.0548 21.2515C16.5795 18.7984 16.4365 18.6013 16.6565 17.7581C16.7885 17.2762 17.2616 16.7834 17.7236 16.641C18.1527 16.5206 18.2077 16.5206 18.6258 16.6301ZM15.7874 21.4596C16.2824 21.591 19.803 25.0735 19.913 25.5444C20.023 25.9824 19.913 26.6504 19.6819 26.968C19.1539 27.6799 18.1087 27.8113 17.3716 27.2747C16.7225 26.8038 14.0821 24.0879 13.8731 23.6827C13.488 22.9161 13.8071 21.9743 14.5992 21.58C15.1383 21.3172 15.2483 21.3063 15.7874 21.4596ZM13.9831 27.2637C14.3901 27.428 15.7874 28.775 15.9634 29.2021C16.5025 30.4615 15.3693 31.7647 14.0491 31.4033C13.488 31.25 12.0028 29.7715 11.8488 29.213C11.5077 27.9536 12.7509 26.8038 13.9831 27.2637ZM52.3788 38.4559C53.787 39.8686 53.93 40.0986 53.798 40.8213C53.732 41.1718 52.9949 41.9603 47.6041 47.3264C44.2376 50.6884 41.3222 53.5138 41.1351 53.6014C40.7171 53.7985 40.244 53.8095 39.9139 53.6233C39.7709 53.5467 39.1218 52.9443 38.4507 52.2982C37.1855 51.0388 36.9655 50.6774 37.0975 49.9985C37.1415 49.7356 38.4177 48.3996 43.2254 43.592C46.5589 40.2628 49.4414 37.4374 49.6174 37.3279C49.8264 37.1965 50.1455 37.1198 50.4975 37.1198H51.0366L52.3788 38.4559Z"
      fill="currentColor"/>
    <path
      d="M36.998 36.5158C36.3709 36.8663 36.2719 37.6986 36.789 38.2242C37.5701 38.9908 38.9013 38.2023 38.5602 37.1729C38.4942 36.9758 38.3512 36.7349 38.2412 36.6363C37.9551 36.3735 37.35 36.3187 36.998 36.5158Z"
      fill="currentColor"/>
    <path
      d="M7.1397 47.183C7.00769 47.2378 6.79865 47.4239 6.65563 47.5992C6.33659 48.0043 6.4026 48.6724 6.82066 49.0228C7.50276 49.6142 8.63593 49.1214 8.63593 48.2453C8.63593 47.5225 7.7778 46.9202 7.1397 47.183Z"
      fill="currentColor"/>
  </g>
  <defs>
    <clipPath id="clip0_6875_82706">
      <rect width="56" height="56" fill="white" transform="matrix(1 0 0 -1 0 56)"/>
    </clipPath>
  </defs>
</svg>
