<svg width="24" height="24" viewBox="0 0 24 24" fill="none" xmlns="http://www.w3.org/2000/svg">
<rect width="24" height="24" rx="4" fill="currentColor"/>
<path d="M6.70711 11.2934C6.31658 10.9029 5.68342 10.9029 5.29289 11.2934C4.90237 11.6839 4.90237 12.3171 5.29289 12.7076L6.70711 11.2934ZM10.2426 16.2431L9.53553 16.9502C9.72307 17.1378 9.97743 17.2431 10.2427 17.2431C10.5079 17.2431 10.7622 17.1378 10.9498 16.9502L10.2426 16.2431ZM19.4346 8.4649C19.8251 8.07436 19.8251 7.4412 19.4346 7.05069C19.044 6.66017 18.4109 6.66019 18.0203 7.05073L19.4346 8.4649ZM5.29289 12.7076L9.53553 16.9502L10.9497 15.536L6.70711 11.2934L5.29289 12.7076ZM10.9498 16.9502L19.4346 8.4649L18.0203 7.05073L9.53551 15.536L10.9498 16.9502Z" fill="white"/>
</svg>
