<svg width="70" height="70" viewBox="0 0 70 70" fill="none" xmlns="http://www.w3.org/2000/svg">
<path fill-rule="evenodd" clip-rule="evenodd" d="M49.6998 16.7955C50.5362 13.0386 53.5939 10.0632 57.5428 9.14452C58.7357 8.87029 61.2449 8.97998 62.4789 9.3639C67.8538 11.0367 70.8704 16.5076 69.3895 21.8688C68.4434 25.283 65.5777 28.0938 62.1773 28.9714L61.5877 29.1222V41.8328C61.5877 50.1557 61.5328 54.7216 61.4506 55.0507C61.4298 55.1239 61.4192 55.1914 61.4095 55.2536C61.3975 55.3303 61.3867 55.3989 61.3597 55.4604C61.1273 55.9888 59.6927 55.9883 45.9358 55.984C44.5766 55.9835 43.0971 55.9831 41.4866 55.9831C30.915 55.9831 22.1534 55.9419 22.03 55.9008C21.5364 55.7088 21.2484 54.6119 21.5501 54.0634C21.5553 54.0538 21.5603 54.0443 21.5652 54.0349C21.5693 54.0271 21.5733 54.0194 21.5773 54.0118L21.5774 54.0117C21.5962 53.9754 21.6139 53.9414 21.6348 53.9095C21.9411 53.444 22.9492 53.4403 38.6783 53.3815L39.663 53.3779L57.0218 53.3093L49.645 45.768C45.5863 41.6271 42.2133 38.2129 42.1448 38.1855C42.0762 38.1718 40.3074 39.7623 38.2233 41.7505C36.1254 43.7387 34.1921 45.48 33.9178 45.6309C33.3008 45.9736 32.2176 45.9736 31.6006 45.6583C31.3675 45.5349 29.4616 43.8072 27.3637 41.8328C25.2796 39.8446 23.4971 38.2266 23.4011 38.2266C23.3188 38.2266 19.9047 41.6271 15.8187 45.7817L8.40072 53.3504L10.526 53.3916L12.665 53.4464L12.9941 53.8303C13.4466 54.3651 13.4466 55.1878 12.9804 55.6403L12.6513 55.9831H8.67495H4.71233L4.35583 55.558L3.99933 55.1329V36.8966V18.6603L4.39696 18.2627L4.7946 17.865H27.1307H49.453L49.6998 16.7955ZM67.0037 17.5497C66.4004 14.6977 64.0009 12.2845 61.2038 11.7086C60.2577 11.5166 58.6946 11.5303 57.7896 11.7497C56.0482 12.1748 54.1698 13.5185 53.2099 14.9993C51.2766 18.0296 51.7291 22.0059 54.2932 24.5426C57.9541 28.1761 64.138 27.1066 66.3867 22.4584C67.2094 20.7719 67.3877 19.3322 67.0037 17.5497ZM51.2492 24.9539C50.7145 24.2546 49.9466 22.527 49.6998 21.4575L49.4667 20.4702H29.064C17.848 20.4702 8.66124 20.4977 8.66124 20.5251C8.66124 20.5525 13.6797 25.3241 19.8087 31.1104C25.916 36.9028 31.3396 42.025 31.8454 42.5028L31.8474 42.5046L32.7524 43.3685L40.7599 35.7997C44.6081 32.1553 48.3306 28.6366 49.7095 27.3332L49.7187 27.3245L50.1523 26.9146C50.9201 26.2016 51.5509 25.5572 51.5646 25.5024C51.5783 25.4338 51.4275 25.187 51.2492 24.9539ZM21.3307 36.1699C21.2621 36.0602 18.1496 33.0985 14.4201 29.5747C10.6905 26.0645 7.39978 22.952 7.12555 22.6915L6.60452 22.1979V36.8555L6.61823 51.5268L8.42815 49.662C9.42909 48.6337 12.761 45.2195 15.8461 42.0659C20.0966 37.7604 21.4404 36.307 21.3307 36.1699ZM57.8444 29.1496C56.6378 28.9439 55.1159 28.3544 54.1835 27.7373C53.8407 27.5179 53.539 27.326 53.4979 27.326C53.4156 27.3397 46.2034 34.1543 44.8734 35.4706L44.0095 36.3344L51.3863 43.8621C55.4449 48.0029 58.818 51.4171 58.8728 51.4308C58.9277 51.4583 58.9688 46.4947 58.9551 40.4068L58.9139 29.3279L57.8444 29.1496ZM61.1996 14.1923C61.1996 13.3639 60.528 12.6923 59.6996 12.6923C58.8712 12.6923 58.1996 13.3639 58.1996 14.1923V19.391C58.1996 20.2194 58.8712 20.891 59.6996 20.891C60.528 20.891 61.1996 20.2194 61.1996 19.391V14.1923ZM59.6996 21.6018C60.528 21.6018 61.1996 22.2734 61.1996 23.1018V23.8445C61.1996 24.6729 60.528 25.3445 59.6996 25.3445C58.8712 25.3445 58.1996 24.6729 58.1996 23.8445V23.1018C58.1996 22.2734 58.8712 21.6018 59.6996 21.6018ZM16.4633 55.5848C15.956 55.0775 15.9423 54.5016 16.4222 53.9394C16.7101 53.5829 16.8746 53.5144 17.3545 53.5144C18.1361 53.5144 18.6023 53.9806 18.6023 54.7758C18.6023 55.9002 17.286 56.3938 16.4633 55.5848Z" fill="#CC163F"/>
</svg>
