<svg width="34" height="48" viewBox="0 0 34 48" fill="none" xmlns="http://www.w3.org/2000/svg">
<path d="M6.8 5.27901e-07C4.99653 5.27901e-07 3.26692 0.722448 1.99167 2.00841C0.716426 3.29438 0 5.03852 0 6.85714V41.1429C0 42.9615 0.716426 44.7056 1.99167 45.9916C3.26692 47.2776 4.99653 48 6.8 48H27.2C29.0035 48 30.7331 47.2776 32.0083 45.9916C33.2836 44.7056 34 42.9615 34 41.1429V15.1337C33.9988 13.7702 33.4607 12.463 32.504 11.4994L22.5998 1.50514C22.126 1.02766 21.5635 0.648972 20.9446 0.390716C20.3256 0.132461 19.6623 -0.000305517 18.9924 5.27901e-07H6.8ZM3.4 6.85714C3.4 5.94783 3.75821 5.07576 4.39584 4.43278C5.03346 3.7898 5.89826 3.42857 6.8 3.42857H17V12C17 13.364 17.5373 14.6721 18.4938 15.6365C19.4502 16.601 20.7474 17.1429 22.1 17.1429H30.6V41.1429C30.6 42.0522 30.2418 42.9242 29.6042 43.5672C28.9665 44.2102 28.1017 44.5714 27.2 44.5714H6.8C5.89826 44.5714 5.03346 44.2102 4.39584 43.5672C3.75821 42.9242 3.4 42.0522 3.4 41.1429V6.85714ZM29.8962 13.7143H22.1C21.6491 13.7143 21.2167 13.5337 20.8979 13.2122C20.5791 12.8907 20.4 12.4547 20.4 12V4.13829L29.8962 13.7143Z" fill="currentColor"/>
</svg>
