<svg width="24" height="24" viewBox="0 0 24 24" fill="none" xmlns="http://www.w3.org/2000/svg">
<path d="M23.5 5.1V5C22.3 2.5 19.6 1 16.7 1C15.7 1 14.7 1.2 13.8 1.6C13 1.9 12.5 2.3 12 2.7C9.3 0.5 5 0.4 2.1 2.8C-0.500003 5.3 -0.400003 9.2 1.1 12.3C2.9 15.5 6.3 18.2 9.4 20.4C9.6 20.5 9.9 20.8 10.3 21.1C10.7 21.4 11.1 21.7 11.8 21.8H12H12.1C12.8 21.8 13.1 21.5 13.5 21.2C14 20.9 14.4 20.6 15 20.2C16 19.5 17 18.6 17.7 18C19.1 16.8 20.6 15.5 21.8 13.9C23.7 11.7 24.6 8.4 23.5 5.1ZM20.1 13C19 14.4 17.7 15.7 16.3 16.8C15.7 17.3 14.6 18.2 13.7 18.9C13.2 19.2 12.8 19.6 12.4 19.8C12.3 19.9 12.1 19.9 12 20C11.9 20 11.8 19.9 11.6 19.8C11.3 19.6 11 19.3 10.7 19.1C7.7 17 4.6 14.3 3 11.7C1.8 9.1 1.8 6.1 3.5 4.3C5.9 2.3 9.4 2.7 11.1 4.8L12 5.8L12.8 4.8C13.3 4.2 13.8 3.8 14.5 3.4C15.3 3.2 16 3 16.7 3C18.8 3 20.6 4 21.5 5.8C22.3 8.4 21.6 11 20.1 13Z" fill="currentColor"/>
<circle cx="20" cy="4" r="4" fill="#CC163F"/>
</svg>
