<svg width="24" height="24" viewBox="0 0 24 24" fill="none" xmlns="http://www.w3.org/2000/svg">
<g clip-path="url(#clip0_2497_2819)">
<path d="M23.5656 5.13942V5.03846C22.3622 2.51442 19.6547 1 16.7466 1C15.7438 1 14.741 1.20192 13.8385 1.60577C13.0363 1.90865 12.5349 2.3125 12.0335 2.71635C9.32599 0.495192 5.014 0.394231 2.10592 2.81731C-0.501328 5.34135 -0.40105 9.27885 1.10313 12.4087C2.90815 15.6394 6.31763 18.3654 9.42627 20.5865C9.62682 20.6875 9.92766 20.9904 10.3288 21.2933C10.7299 21.5962 11.131 21.899 11.833 22H12.0335H12.1338C12.8357 22 13.1366 21.6971 13.5377 21.3942C14.0391 21.0913 14.4402 20.7885 15.0419 20.3846C16.0447 19.6779 17.0475 18.7692 17.7494 18.1635C19.1533 16.9519 20.6575 15.6394 21.8608 14.024C23.7661 11.8029 24.6686 8.47115 23.5656 5.13942ZM20.1561 13.1154C19.053 14.5288 17.7494 15.8413 16.3455 16.9519C15.7438 17.4567 14.6408 18.3654 13.7383 19.0721C13.2369 19.375 12.8357 19.7788 12.4346 19.9808C12.3344 20.0817 12.1338 20.0817 12.0335 20.1827C11.9332 20.1827 11.833 20.0817 11.6324 19.9808C11.3316 19.7788 11.0307 19.476 10.7299 19.274C7.72153 17.1538 4.61289 14.4279 3.00843 11.8029C1.80508 9.17789 1.80508 6.14904 3.50982 4.33173C5.91651 2.3125 9.42627 2.71635 11.131 4.83654L12.0335 5.84615L12.8357 4.83654C13.3371 4.23077 13.8385 3.82692 14.5405 3.42308C15.3427 3.22115 16.0447 3.01923 16.7466 3.01923C18.8525 3.01923 20.6575 4.02885 21.56 5.84615C22.3622 8.47115 21.6603 11.0962 20.1561 13.1154Z" fill="currentColor"/>
</g>
<defs>
<clipPath id="clip0_2497_2819">
<rect width="24" height="21" fill="white" transform="translate(0 1)"/>
</clipPath>
</defs>
</svg>
