<svg width="24" height="25" viewBox="0 0 24 25" fill="none" xmlns="http://www.w3.org/2000/svg">
<path d="M10.1016 11.4607L5.00258 16.6052C4.35588 17.2571 4 18.1242 4 19.0467C4 19.9696 4.3563 20.8367 5.00272 21.4885C5.64899 22.1404 6.50869 22.4997 7.42278 22.5H7.42306C8.3373 22.5 9.19657 22.1407 9.84285 21.4885L14.9421 16.3439C15.9915 15.2852 16.2407 13.6768 15.5833 12.3563L14.4638 13.4859C14.6029 14.1461 14.4017 14.8395 13.9266 15.3189L8.69921 20.5922L8.69556 20.589C8.3237 20.9166 7.8541 21.0953 7.35968 21.0953C6.83133 21.0953 6.33677 20.8897 5.96631 20.5164C5.59038 20.1373 5.3872 19.631 5.39239 19.0907C5.39744 18.599 5.57482 18.1326 5.89494 17.7624L5.892 17.7595L5.96365 17.6867C5.97304 17.6767 5.98286 17.6663 5.99253 17.6568C5.99548 17.6539 5.99856 17.6506 6.00151 17.6481L6.01875 17.6304L11.1177 12.4859C11.493 12.1078 11.9913 11.8997 12.5211 11.8997C12.6581 11.8997 12.7941 11.914 12.9276 11.9419L14.0483 10.8109C13.5772 10.5738 13.0532 10.4496 12.5215 10.4496C11.6075 10.4497 10.748 10.8089 10.1016 11.4607ZM20 5.95299C20 5.03064 19.6437 4.16347 18.9974 3.51161C18.351 2.85903 17.4915 2.5 16.5771 2.5C15.663 2.5 14.8036 2.85918 14.1573 3.51161L9.05789 8.65565C8.00918 9.71352 7.75945 11.3208 8.41498 12.6407L9.48711 11.5591C9.36414 10.9411 9.53731 10.291 9.95194 9.81113L9.949 9.80802L10.0194 9.73629C10.0284 9.72682 10.0382 9.71677 10.0476 9.70715C10.0505 9.70432 10.0532 9.70149 10.0563 9.69866L10.0739 9.6807L15.1728 4.53651C15.5479 4.1581 16.0465 3.94986 16.5769 3.94986C17.1075 3.94986 17.606 4.1581 17.9811 4.53651C18.7554 5.31753 18.7554 6.58915 17.9811 7.36961L12.7547 12.6431L12.751 12.6394C12.3786 12.9672 11.9098 13.146 11.4153 13.146C11.2819 13.146 11.1501 13.1327 11.0207 13.1067L9.94871 14.1882C10.4211 14.426 10.9453 14.5507 11.4781 14.5507C12.3928 14.5507 13.2522 14.1916 13.8984 13.5395L18.9976 8.39522C19.644 7.74265 20 6.87561 20 5.95299Z" fill="currentColor"/>
</svg>
