<svg width="30" height="30" viewBox="0 0 30 30" fill="none" xmlns="http://www.w3.org/2000/svg">
<g clip-path="url(#clip0_2652_11629)">
<path d="M25.2867 13.125H23.1697V7.5C23.1697 3.375 19.3592 0 14.7018 0C10.0445 0 6.23394 3.375 6.23394 7.5V13.125H4.11697C3.05849 13.125 2 14.0625 2 15V28.125C2 29.0625 3.05849 30 4.11697 30H25.2867C26.3452 30 27.4037 29.0625 27.4037 28.125V15C27.4037 14.0625 26.3452 13.125 25.2867 13.125ZM16.8188 26.25H12.5849L13.4316 22.125C12.3732 21.75 11.5264 20.625 11.5264 19.6875C11.5264 18.1875 13.0083 16.875 14.7018 16.875C16.3954 16.875 17.8773 18.1875 17.8773 19.6875C17.8773 20.8125 17.2422 21.75 15.972 22.125L16.8188 26.25ZM18.9358 13.125H10.4679V7.5C10.4679 5.4375 12.3732 3.75 14.7018 3.75C17.0305 3.75 18.9358 5.4375 18.9358 7.5V13.125Z" fill="currentColor"/>
</g>
<defs>
<clipPath id="clip0_2652_11629">
<rect width="30" height="30" fill="white"/>
</clipPath>
</defs>
</svg>
