<svg width="20" height="20" viewBox="0 0 20 20" fill="none" xmlns="http://www.w3.org/2000/svg">
  <g clip-path="url(#clip0_6875_81277)">
    <path fill-rule="evenodd" clip-rule="evenodd"
          d="M15.5969 15.5938L15.5992 15.5915C16.3351 14.8576 16.9186 13.9854 17.3164 13.0252C17.7141 12.0651 17.9182 11.0357 17.9168 9.99642L17.9168 9.99321C17.9182 8.95389 17.7141 7.92456 17.3164 6.96436C16.9186 6.00417 16.335 5.13203 15.5992 4.39808L15.5969 4.39577C14.8629 3.65989 13.9908 3.07632 13.0306 2.67858C12.0704 2.28084 11.0411 2.07679 10.0018 2.07813L9.99858 2.07814C8.95926 2.07681 7.92993 2.28088 6.96973 2.67862C6.00954 3.07636 5.1374 3.65992 4.40345 4.39578L4.40116 4.39808C3.6653 5.13203 3.08173 6.00416 2.68399 6.96436C2.28625 7.92456 2.08218 8.95389 2.0835 9.99321L2.08351 9.99642C2.08216 11.0357 2.28622 12.0651 2.68395 13.0252C3.08169 13.9854 3.66526 14.8576 4.40114 15.5915L4.40345 15.5938C5.1374 16.3297 6.00954 16.9132 6.96973 17.311C7.92993 17.7087 8.95926 17.9128 9.99858 17.9115L10.0002 19.1615C8.79616 19.163 7.60372 18.9266 6.49137 18.4658C5.37901 18.0051 4.36868 17.329 3.51842 16.4765C2.66593 15.6263 1.98988 14.616 1.52911 13.5036C1.06834 12.3913 0.831944 11.1988 0.833504 9.9948C0.831969 8.79079 1.06838 7.59835 1.52914 6.48599C1.98991 5.37364 2.66595 4.36331 3.51842 3.51305C4.36868 2.66058 5.37901 1.98454 6.49137 1.52377C7.60372 1.06301 8.79616 0.826598 10.0002 0.828133C11.2042 0.826573 12.3966 1.06297 13.509 1.52374C14.6213 1.98451 15.6317 2.66056 16.4819 3.51305C17.3344 4.36331 18.0104 5.37364 18.4712 6.48599C18.932 7.59835 19.1684 8.79079 19.1668 9.9948C19.1684 11.1988 18.932 12.3913 18.4712 13.5036C18.0105 14.616 17.3344 15.6263 16.4819 16.4765C15.6317 17.329 14.6213 18.0051 13.509 18.4659C12.3966 18.9266 11.2042 19.163 10.0002 19.1615L10.0018 17.9115C11.0411 17.9128 12.0704 17.7088 13.0306 17.311C13.9908 16.9133 14.8629 16.3297 15.5969 15.5938ZM10.0002 15.9518C10.3041 15.9518 10.5955 15.8311 10.8104 15.6162C11.0253 15.4013 11.146 15.1099 11.146 14.806C11.146 14.5021 11.0253 14.2106 10.8104 13.9958C10.5955 13.7809 10.3041 13.6602 10.0002 13.6602C9.69627 13.6602 9.40482 13.7809 9.18994 13.9958C8.97505 14.2106 8.85433 14.5021 8.85433 14.806C8.85433 15.1099 8.97505 15.4013 9.18994 15.6162C9.40482 15.8311 9.69627 15.9518 10.0002 15.9518ZM10.8335 4.49349C10.8335 4.03325 10.4604 3.66016 10.0002 3.66016C9.53993 3.66016 9.16683 4.03325 9.16683 4.49349V11.9935C9.16683 12.4537 9.53993 12.8268 10.0002 12.8268C10.4604 12.8268 10.8335 12.4537 10.8335 11.9935V4.49349Z"
          fill="currentColor"/>
  </g>
  <defs>
    <clipPath id="clip0_6875_81277">
      <rect width="20" height="20" fill="white"/>
    </clipPath>
  </defs>
</svg>
