<svg width="25" height="21" viewBox="0 0 25 21" fill="none" xmlns="http://www.w3.org/2000/svg">
<path d="M19.6931 21H19.5624C4.45258 20.1308 2.30721 7.37692 2.00732 3.48462C1.98316 3.18198 2.01893 2.87756 2.11257 2.58878C2.20622 2.3 2.35591 2.03254 2.55306 1.80173C2.75021 1.57092 2.99095 1.3813 3.26149 1.24372C3.53202 1.10615 3.82703 1.02332 4.12962 1H8.36652C8.67453 0.999702 8.97553 1.09193 9.23054 1.26474C9.48554 1.43755 9.6828 1.68298 9.79676 1.96923L10.9656 4.84615C11.0781 5.12581 11.106 5.43237 11.0459 5.72776C10.9857 6.02316 10.8401 6.29436 10.6272 6.50769L8.98937 8.16154C9.24521 9.61596 9.94147 10.9567 10.9839 12.0023C12.0264 13.0479 13.3648 13.7479 14.818 14.0077L16.4866 12.3538C16.7031 12.1432 16.9767 12.001 17.2735 11.9449C17.5702 11.8888 17.8769 11.9213 18.1552 12.0385L21.0542 13.2C21.336 13.3176 21.5764 13.5165 21.7449 13.7713C21.9133 14.0261 22.0021 14.3253 22 14.6308V18.6923C22 19.3043 21.7569 19.8913 21.3243 20.3241C20.8917 20.7569 20.3049 21 19.6931 21ZM4.31417 2.53846C4.11023 2.53846 3.91464 2.61951 3.77044 2.76376C3.62623 2.90802 3.54522 3.10368 3.54522 3.30769V3.36923C3.89894 7.92308 6.16733 18.6923 19.647 19.4615C19.748 19.4678 19.8493 19.454 19.945 19.421C20.0406 19.388 20.1289 19.3365 20.2046 19.2693C20.2803 19.2021 20.3421 19.1207 20.3862 19.0296C20.4304 18.9385 20.4562 18.8395 20.4621 18.7385V14.6308L17.5631 13.4692L15.3563 15.6615L14.9872 15.6154C8.29732 14.7769 7.38996 8.08462 7.38996 8.01539L7.34382 7.64615L9.52763 5.43846L8.37421 2.53846H4.31417Z" fill="currentColor"/>
</svg>
