<svg width="24" height="24" viewBox="0 0 24 24" fill="none" xmlns="http://www.w3.org/2000/svg">
<path d="M12 12.5C13.6569 12.5 15 11.1569 15 9.5C15 7.84315 13.6569 6.5 12 6.5C10.3431 6.5 9 7.84315 9 9.5C9 11.1569 10.3431 12.5 12 12.5Z" stroke="currentColor" stroke-width="2" stroke-linecap="round" stroke-linejoin="round"/>
<path d="M12 1C9.87827 1 7.84344 1.92714 6.34315 3.57746C4.84285 5.22778 4 7.46609 4 9.8C4 11.8812 4.402 13.243 5.5 14.75L12 23L18.5 14.75C19.598 13.243 20 11.8812 20 9.8C20 7.46609 19.1571 5.22778 17.6569 3.57746C16.1566 1.92714 14.1217 1 12 1V1Z" stroke="currentColor" stroke-width="2" stroke-linecap="round" stroke-linejoin="round"/>
</svg>
