<svg width="24" height="24" viewBox="0 0 24 24" fill="none" xmlns="http://www.w3.org/2000/svg">
<path d="M21.5034 2.19623C18.4301 -0.732076 13.2192 -0.732076 9.89611 2.19623L0.679561 10.3035C0.619528 10.3563 0.585864 10.4278 0.582638 10.5024C0.579412 10.577 0.606893 10.6485 0.662356 10.7014L1.86622 11.8484C1.92126 11.9006 1.99755 11.9299 2.0784 11.9299C2.15925 11.9299 2.23808 11.9006 2.29763 11.8484L11.5142 3.7412C12.6583 2.73401 14.1463 2.18068 15.7021 2.18068C17.2579 2.18068 18.6981 2.73401 19.7517 3.7412C20.8088 4.74839 21.3555 6.08819 21.2941 7.50883C21.2325 8.93256 20.57 10.2693 19.4259 11.2764L10.0326 19.5422L8.51063 20.882C7.0875 22.1348 4.86251 22.1348 3.54772 20.882C2.91153 20.2759 2.58288 19.4707 2.61998 18.6127C2.65708 17.7548 3.05536 16.9496 3.74398 16.3435L13.0631 8.14298C13.2995 7.93781 13.6034 7.82279 13.9227 7.82279H13.9261C14.2455 7.82279 14.536 7.93781 14.7513 8.14298C14.9699 8.35126 15.0804 8.62481 15.0678 8.91702C15.0553 9.20612 14.9177 9.47968 14.6847 9.68485L7.06782 16.3839C7.00779 16.4367 6.97412 16.5082 6.9709 16.5828C6.96767 16.6574 6.99515 16.7289 7.05061 16.7818L8.25448 17.9289C8.30952 17.9811 8.38581 18.0104 8.46666 18.0104C8.54751 18.0104 8.62634 17.9811 8.68589 17.9289L16.2995 11.2267C17.0022 10.6081 17.408 9.78743 17.4457 8.91391C17.4835 8.0404 17.1455 7.21662 16.4995 6.60111C15.1586 5.32348 12.8893 5.32659 11.4381 6.60111L10.5339 7.40002L2.12237 14.8016C1.55159 15.3012 1.09057 15.8956 0.76603 16.5504C0.441494 17.2052 0.259909 17.9072 0.231803 18.6159C0.169567 20.0551 0.725938 21.4074 1.79278 22.4239C2.8989 23.4746 4.38442 24 5.89266 24C7.40089 24 8.93185 23.4746 10.1254 22.4239L21.0441 12.8183C22.651 11.4008 23.5886 9.51387 23.6753 7.50883C23.7655 5.50067 22.9911 3.61375 21.5034 2.19623Z" fill="currentColor"/>
</svg>
