<svg width="20" height="20" viewBox="0 0 20 20" fill="none" xmlns="http://www.w3.org/2000/svg">
<path fill-rule="evenodd" clip-rule="evenodd" d="M8.58883 4.0378H13.9583L15.8508 4.03747C17.1909 4.03572 18.531 4.0367 19.8712 4.04043C19.9691 4.04076 19.9992 4.01248 19.9992 3.90461C19.9944 3.50733 19.9944 3.11006 19.9992 2.71279C20.0007 2.59505 19.9652 2.54407 19.8565 2.55788C19.8195 2.56025 19.7823 2.56025 19.7453 2.55788C15.8687 2.55591 11.9921 2.5569 8.11541 2.56085C8.05982 2.57133 8.0027 2.55749 7.95634 2.52231C7.90999 2.48712 7.87811 2.4334 7.86759 2.37273C7.66515 1.66816 7.22781 1.07287 6.6426 0.705359C6.14409 0.372163 5.55613 0.236667 4.97723 0.32157C4.45132 0.376197 3.95198 0.60018 3.54224 0.96524C3.13251 1.3303 2.83074 1.82007 2.67504 2.37273C2.66527 2.43273 2.63434 2.48612 2.58893 2.52137C2.54352 2.55663 2.48727 2.57093 2.43232 2.56118C1.83944 2.55517 1.24639 2.55583 0.653297 2.55649C0.466895 2.55669 0.28049 2.5569 0.0940837 2.5569C0.0860723 2.5569 0.0777056 2.55586 0.0694084 2.55483C0.0332176 2.55032 -0.00165011 2.54599 6.04538e-05 2.62892C0.00867165 3.04878 0.0107732 3.46853 0.00636748 3.88817C0.00516592 4.00163 0.0213881 4.0401 0.13794 4.0401C0.526517 4.03677 0.915094 4.03673 1.30363 4.03669C1.68221 4.03665 2.06076 4.03661 2.43923 4.03353C2.46539 4.02834 2.49223 4.0289 2.51818 4.03518C2.54414 4.04146 2.56869 4.05335 2.59041 4.07012C2.61213 4.08689 2.63059 4.10823 2.64471 4.13289C2.65882 4.15755 2.66832 4.18503 2.67264 4.21375C2.7846 4.60983 2.97203 4.97541 3.22254 5.28635C3.47305 5.59729 3.78096 5.84652 4.12592 6.0176C4.56801 6.24809 5.06015 6.33865 5.54677 6.27905C6.04203 6.22598 6.51403 6.02306 6.90995 5.693C7.37292 5.31501 7.7135 4.78499 7.88201 4.18021C7.88481 4.15812 7.89156 4.13685 7.90189 4.11763C7.91222 4.09841 7.92591 4.08161 7.94218 4.06819C7.95845 4.05478 7.97698 4.04501 7.99671 4.03946C8.01644 4.0339 8.03697 4.03267 8.05714 4.03582C8.18072 4.04157 8.3046 4.04025 8.42846 4.03894C8.48193 4.03837 8.53539 4.0378 8.58883 4.0378ZM6.23895 2.23554C6.49824 2.51959 6.64469 2.90416 6.6465 3.30573C6.64261 3.70256 6.49705 4.08198 6.24096 4.36284C5.98487 4.6437 5.63857 4.80371 5.27612 4.80867C5.09539 4.80915 4.91636 4.77047 4.74936 4.69484C4.58235 4.61921 4.43067 4.50814 4.30305 4.36803C4.17544 4.22792 4.07442 4.06154 4.00582 3.87848C3.93721 3.69543 3.90238 3.49933 3.90334 3.30147C3.90204 2.90424 4.04399 2.52251 4.29835 2.23923C4.5527 1.95596 4.89891 1.79403 5.2617 1.78866C5.6285 1.79091 5.97967 1.95149 6.23895 2.23554ZM5.13688 9.36612H9.44268C9.51501 9.36612 9.58736 9.36649 9.65972 9.36687C9.89113 9.36806 10.1226 9.36926 10.3535 9.35822C10.4282 9.35465 10.5022 9.35965 10.5762 9.36465H10.5762C10.659 9.37025 10.7418 9.37585 10.8254 9.36941C10.9425 9.36025 11.0603 9.36241 11.1781 9.36456H11.1781L11.1783 9.36457C11.2297 9.36551 11.2811 9.36645 11.3324 9.36645H12.8419C13.0356 9.36645 13.0364 9.36399 13.0987 9.1806L13.1053 9.16099C13.262 8.61973 13.5594 8.14036 13.9611 7.78166C14.3627 7.42296 14.8511 7.20053 15.3664 7.14164C16.0047 7.04941 16.6521 7.20991 17.1921 7.59428C17.7321 7.97866 18.1292 8.56165 18.312 9.23837C18.3171 9.27816 18.3363 9.31413 18.3656 9.33839C18.3948 9.36264 18.4316 9.37321 18.4679 9.36777C18.6745 9.36613 18.8812 9.36638 19.0878 9.36662H19.0881C19.3392 9.36692 19.5902 9.36722 19.8413 9.36415C19.9575 9.36415 20.0023 9.40004 20.0002 9.53273C19.994 9.92148 19.994 10.3102 20.0002 10.699C20.0023 10.8336 19.9548 10.8675 19.8404 10.8662C19.639 10.8638 19.4376 10.8642 19.2362 10.8647C19.0004 10.8652 18.7646 10.8657 18.5289 10.8616C18.4754 10.8514 18.4204 10.8648 18.3759 10.8989C18.3314 10.933 18.3011 10.9851 18.2916 11.0437C18.1131 11.6506 17.7623 12.179 17.2904 12.5519C16.8185 12.9247 16.2502 13.1224 15.6686 13.1161C15.0972 13.1089 14.5423 12.9051 14.0824 12.5333C13.6225 12.1615 13.2809 11.6406 13.1059 11.0444C13.0964 10.986 13.0663 10.9341 13.0222 10.8998C12.9781 10.8655 12.9235 10.8516 12.8701 10.861C8.67147 10.8645 4.47281 10.8655 0.274156 10.8639C0.232932 10.8615 0.19162 10.8615 0.150395 10.8639C0.0455585 10.8761 0.00620522 10.8366 0.00830795 10.7128C0.0155173 10.3062 0.0140154 9.8992 0.00830795 9.49223C0.00830795 9.39049 0.031142 9.3625 0.125465 9.36283C1.79584 9.36656 3.46631 9.36766 5.13688 9.36612ZM17.0699 10.1181C17.0709 9.72062 16.9284 9.33882 16.6735 9.056C16.4186 8.77318 16.0721 8.61232 15.7094 8.60849C15.3454 8.60906 14.9962 8.76652 14.7372 9.04689C14.4783 9.32725 14.3303 9.70801 14.3252 10.107C14.3243 10.5048 14.467 10.8869 14.722 11.1699C14.9771 11.453 15.3239 11.614 15.6869 11.6179C15.8677 11.6197 16.047 11.5823 16.2146 11.5077C16.3821 11.4332 16.5346 11.3231 16.6631 11.1837C16.7917 11.0444 16.8938 10.8785 16.9636 10.6957C17.0334 10.5128 17.0695 10.3167 17.0699 10.1185V10.1181ZM15.6283 17.6644L14.6631 17.6646C13.591 17.665 12.5187 17.6653 11.4466 17.6618C11.3973 17.6535 11.3469 17.6666 11.3064 17.6984C11.2658 17.7302 11.2382 17.778 11.2294 17.8318C11.0912 18.332 10.8321 18.7821 10.4796 19.1345C10.1271 19.4869 9.69424 19.7286 9.22669 19.834C8.7795 19.9556 8.31096 19.9464 7.86808 19.8071C7.42519 19.6679 7.02354 19.4036 6.70341 19.0408C6.38159 18.7012 6.14589 18.2759 6.01942 17.8065C6.01593 17.7838 6.00838 17.762 5.9972 17.7425C5.98602 17.723 5.97143 17.706 5.95428 17.6927C5.93712 17.6794 5.91772 17.6698 5.8972 17.6647C5.87668 17.6596 5.85544 17.6589 5.83468 17.6628C4.63052 17.6656 3.42635 17.6662 2.22219 17.6644C2.04373 17.6644 1.86524 17.6643 1.68675 17.6641H1.68672C1.17661 17.6637 0.666425 17.6632 0.156403 17.6664C0.0473612 17.6664 0.00620676 17.6391 0.0080091 17.5085C0.0149181 17.1024 0.0122166 16.6959 0.0044064 16.2897C0.00200327 16.17 0.0620775 16.1694 0.136574 16.1694H3.06869L3.67581 16.1692C4.38392 16.1688 5.09203 16.1685 5.80014 16.1723C5.85156 16.1814 5.9042 16.1684 5.947 16.1359C5.9898 16.1034 6.01942 16.0539 6.02964 15.998C6.17871 15.46 6.46705 14.9807 6.85976 14.6184C7.25247 14.256 7.7327 14.0261 8.24231 13.9564C8.63293 13.8864 9.03295 13.9145 9.41219 14.0385C9.79143 14.1626 10.14 14.3793 10.4316 14.6723C10.8144 15.034 11.0942 15.5084 11.2378 16.0391C11.2718 16.1598 11.3408 16.1707 11.434 16.1707C12.2176 16.1691 13.0011 16.1691 13.7845 16.1707H19.7479C19.761 16.1707 19.7734 16.1707 19.7852 16.1706C19.896 16.1704 19.9496 16.1702 19.9754 16.197C19.9996 16.2221 19.9991 16.271 19.9982 16.3659C19.998 16.3874 19.9978 16.4113 19.9978 16.4377V17.4401C19.9978 17.5574 19.9978 17.6137 19.9697 17.6408C19.9437 17.6657 19.8937 17.6657 19.7974 17.6657L15.6283 17.6644ZM8.6163 18.4179C8.98082 18.4213 9.33169 18.2662 9.59184 17.9866C9.85199 17.707 10.0002 17.3258 10.0038 16.9268C10.0028 16.5301 9.86004 16.1496 9.60597 15.8669C9.3519 15.5841 9.00677 15.4215 8.64454 15.4139C8.28195 15.4099 7.9325 15.5624 7.67189 15.8384C7.41128 16.1144 7.2605 16.4917 7.25223 16.8886C7.24904 17.0874 7.28191 17.2849 7.34893 17.4696C7.41595 17.6544 7.51578 17.8228 7.64265 17.965C7.76952 18.1073 7.92091 18.2205 8.08804 18.2983C8.25517 18.376 8.43472 18.4166 8.6163 18.4179Z" fill="currentColor"/>
</svg>
