<svg width="25" height="25" viewBox="0 0 25 25" fill="none" xmlns="http://www.w3.org/2000/svg">
<path fill-rule="evenodd" clip-rule="evenodd" d="M19.6379 14.7759C18.0862 14.7759 16.6379 15.5 15.7069 16.7414L10.1207 13.9483C10.2241 13.5345 10.3276 13.0172 10.3276 12.6034C10.3276 12.0862 10.2241 11.6724 10.1207 11.2586L15.7069 8.46552C16.6379 9.60345 17.9828 10.431 19.6379 10.431C22.3276 10.431 24.5 8.25862 24.5 5.56897C24.5 2.87931 22.3276 0.5 19.6379 0.5C16.9483 0.5 14.7759 2.67241 14.7759 5.46552C14.7759 5.98276 14.8793 6.39655 14.9828 6.81034L9.2931 9.60345C8.46552 8.36207 7.01724 7.63793 5.36207 7.63793C2.67241 7.63793 0.5 9.81034 0.5 12.5C0.5 15.1897 2.67241 17.3621 5.36207 17.3621C6.91379 17.3621 8.36207 16.6379 9.2931 15.3966L14.8793 18.1897C14.7759 18.6034 14.6724 19.1207 14.6724 19.5345C14.6724 22.2241 16.8448 24.3966 19.5345 24.3966C22.2241 24.3966 24.3966 22.2241 24.3966 19.5345C24.3966 16.8448 22.3276 14.7759 19.6379 14.7759ZM19.6379 2.36207C21.3966 2.36207 22.7414 3.7069 22.7414 5.46552C22.7414 7.22414 21.3966 8.56897 19.6379 8.56897C18.5 8.56897 17.4655 7.94828 16.9483 7.01724C16.9483 6.91379 16.9483 6.91379 16.8448 6.81034C16.8448 6.7069 16.7414 6.7069 16.7414 6.60345C16.6379 6.18966 16.5345 5.77586 16.5345 5.36207C16.5345 3.7069 17.8793 2.36207 19.6379 2.36207ZM8.25862 13.7414C8.25862 13.7414 8.15517 13.8448 8.15517 13.9483C8.15517 13.9483 8.15517 14.0517 8.05172 14.1552C7.53448 15.0862 6.5 15.7069 5.36207 15.7069C3.60345 15.7069 2.25862 14.3621 2.25862 12.6034C2.25862 10.8448 3.60345 9.5 5.36207 9.5C6.5 9.5 7.53448 10.1207 8.05172 11.0517C8.05172 11.1552 8.05172 11.1552 8.15517 11.2586L8.25862 11.3621C8.46552 11.7759 8.46552 12.1897 8.46552 12.6034C8.46552 13.0172 8.46552 13.3276 8.25862 13.7414ZM19.6379 22.7414C17.8793 22.7414 16.5345 21.3966 16.5345 19.6379C16.5345 19.2241 16.6379 18.8103 16.7414 18.3966C16.7414 18.3966 16.8448 18.2931 16.8448 18.1897C16.8448 18.0862 16.8448 18.0862 16.9483 17.9828C17.4655 17.0517 18.5 16.431 19.6379 16.431C21.3966 16.431 22.7414 17.7759 22.7414 19.5345C22.7414 21.3966 21.3966 22.7414 19.6379 22.7414Z" fill="currentColor"/>
</svg>
