<svg width="48" height="48" viewBox="0 0 48 48" fill="none" xmlns="http://www.w3.org/2000/svg">
<path d="M20.9906 5.81289C20.3813 5.91601 19.8844 6.19726 19.4156 6.70351C18.6469 7.53789 18.7125 6.70351 18.6563 17.091L18.6094 26.3535L17.25 24.6848C14.925 21.8348 14.6063 21.5723 13.3594 21.4879C11.6719 21.3848 10.2188 22.716 10.2188 24.3754C10.2188 24.7129 10.2656 25.1441 10.3219 25.341C10.4813 25.9129 20.2125 40.4441 20.8031 40.9973C21.45 41.5973 22.4531 42.066 23.3438 42.1879C24.2813 42.3098 30.3844 42.3098 31.4438 42.1879C33.1875 41.9816 34.5469 41.3254 35.7844 40.0691C36.4031 39.441 36.6375 39.1129 37.0125 38.3535C37.8188 36.7504 37.7906 37.1629 37.7625 27.9848L37.7344 19.9223L37.4531 19.416C37.1438 18.8629 36.7313 18.4785 36.0938 18.1691C35.5031 17.8879 34.4344 17.8785 33.825 18.1598L33.3844 18.3566L33.3188 17.9254C33 15.6566 30.3094 14.5785 28.6406 16.0504L28.2188 16.4254L27.7781 16.041C27 15.3473 25.6875 15.1785 24.7688 15.6473L24.375 15.8441V12.0098C24.375 8.29726 24.3656 8.14726 24.1688 7.62226C23.7 6.35664 22.3406 5.58789 20.9906 5.81289ZM22.1813 7.20976C22.3969 7.30351 22.6688 7.52851 22.7906 7.69726L23.0156 8.01601L23.0625 16.6223L23.1094 25.2379L23.3344 25.416C23.6156 25.6504 23.9531 25.641 24.1875 25.4066C24.3656 25.2285 24.375 25.0973 24.375 21.5816C24.375 18.0004 24.375 17.9441 24.5906 17.5316C24.8813 16.941 25.3031 16.6879 25.9688 16.6879C26.5594 16.6879 26.9625 16.8941 27.3188 17.3723C27.5063 17.6254 27.5156 17.766 27.5625 21.4223C27.6094 24.966 27.6188 25.2098 27.7875 25.3973C28.0125 25.6504 28.425 25.6504 28.65 25.3973C28.8188 25.2098 28.8281 24.966 28.875 21.4223C28.9219 17.766 28.9313 17.6254 29.1188 17.3723C29.475 16.8941 29.8781 16.6879 30.4688 16.6879C31.1344 16.6879 31.5563 16.941 31.8563 17.5316C32.0625 17.9441 32.0625 17.9816 32.0625 21.9004V25.866L32.3063 26.0535C32.6156 26.2973 32.8219 26.2973 33.1031 26.0723L33.3281 25.8941L33.375 23.0441C33.4125 21.0004 33.4594 20.1473 33.5438 19.9973C33.8531 19.4441 34.7344 19.0973 35.3906 19.2566C35.7656 19.3504 36.3563 19.941 36.4688 20.3254C36.525 20.5504 36.5625 23.3723 36.5625 28.1066C36.5625 36.2441 36.5531 36.3379 36.0094 37.5473C35.25 39.1973 33.6844 40.4535 31.9125 40.8285C30.9938 41.0254 23.8125 41.0254 23.0813 40.8379C22.4531 40.6691 21.7313 40.2098 21.3375 39.7129C21.1688 39.5066 18.8813 36.1035 16.2563 32.166L11.4844 25.0129L11.4938 24.4785C11.4938 23.8504 11.6813 23.4473 12.15 23.091C12.6094 22.7441 13.575 22.6691 14.025 22.9598C14.1938 23.0629 15.3656 24.4129 16.6313 25.9598C18.7125 28.5004 18.975 28.7816 19.2188 28.7816C19.3781 28.7816 19.5844 28.6973 19.6875 28.5941C19.875 28.4066 19.875 28.2754 19.875 18.441C19.8844 7.89414 19.875 8.06289 20.3156 7.57539C20.5406 7.31289 21.1688 7.03164 21.5156 7.03164C21.675 7.03164 21.9656 7.11601 22.1813 7.20976Z" fill="currentColor"/>
<path d="M14 6L1 6M1 6L6 10M1 6L6 2" stroke="currentColor" stroke-width="1.5" stroke-linecap="round" stroke-linejoin="round"/>
<path d="M34 6L47 6M47 6L42 2M47 6L42 10" stroke="currentColor" stroke-width="1.5" stroke-linecap="round" stroke-linejoin="round"/>
</svg>
