<svg width="17" height="17" viewBox="0 0 17 17" fill="none" xmlns="http://www.w3.org/2000/svg">
<path d="M8.20711 13.2071C8.59763 12.8166 8.59763 12.1834 8.20711 11.7929C7.81658 11.4024 7.18342 11.4024 6.79289 11.7929L8.20711 13.2071ZM4.5 15.5L3.79289 16.2071C4.18342 16.5976 4.81658 16.5976 5.20711 16.2071L4.5 15.5ZM2.20711 11.7929C1.81658 11.4024 1.18342 11.4024 0.792893 11.7929C0.402369 12.1834 0.402369 12.8166 0.792893 13.2071L2.20711 11.7929ZM8.79289 3.79289C8.40237 4.18342 8.40237 4.81658 8.79289 5.20711C9.18342 5.59763 9.81658 5.59763 10.2071 5.20711L8.79289 3.79289ZM12.5 1.5L13.2071 0.792893C12.8166 0.402369 12.1834 0.402369 11.7929 0.792893L12.5 1.5ZM14.7929 5.20711C15.1834 5.59763 15.8166 5.59763 16.2071 5.20711C16.5976 4.81658 16.5976 4.18342 16.2071 3.79289L14.7929 5.20711ZM11.5 15.5C11.5 16.0523 11.9477 16.5 12.5 16.5C13.0523 16.5 13.5 16.0523 13.5 15.5H11.5ZM5.5 1.5C5.5 0.947715 5.05229 0.5 4.5 0.5C3.94772 0.5 3.5 0.947715 3.5 1.5L5.5 1.5ZM6.79289 11.7929L3.79289 14.7929L5.20711 16.2071L8.20711 13.2071L6.79289 11.7929ZM5.20711 14.7929L2.20711 11.7929L0.792893 13.2071L3.79289 16.2071L5.20711 14.7929ZM10.2071 5.20711L13.2071 2.20711L11.7929 0.792893L8.79289 3.79289L10.2071 5.20711ZM11.7929 2.20711L14.7929 5.20711L16.2071 3.79289L13.2071 0.792893L11.7929 2.20711ZM13.5 15.5L13.5 1.5L11.5 1.5L11.5 15.5H13.5ZM3.5 1.5L3.5 15.5H5.5L5.5 1.5L3.5 1.5Z" fill="currentColor"/>
</svg>
