<svg width="70" height="70" viewBox="0 0 70 70" fill="none" xmlns="http://www.w3.org/2000/svg">
<path d="M34.9563 70C30.0042 70 25.4016 69.1104 21.1486 67.3313C16.8955 65.5521 13.196 63.0875 10.0499 59.9375C6.90387 56.7875 4.44236 53.0833 2.66542 48.825C0.888473 44.5667 0 39.9583 0 35C0 30.1 0.888473 25.5208 2.66542 21.2625C4.44236 17.0042 6.90387 13.3 10.0499 10.15C13.196 7 16.8955 4.52083 21.1486 2.7125C25.4016 0.904167 30.0042 0 34.9563 0C39.3258 0 43.4041 0.7 47.191 2.1C50.9779 3.5 54.3862 5.425 57.4157 7.875L53.6579 11.6375C51.0945 9.59583 48.2397 8.02083 45.0936 6.9125C41.9476 5.80417 38.5685 5.25 34.9563 5.25C26.5085 5.25 19.4444 8.09375 13.764 13.7813C8.08365 19.4688 5.24345 26.5417 5.24345 35C5.24345 43.4583 8.08365 50.5312 13.764 56.2188C19.4444 61.9062 26.5085 64.75 34.9563 64.75C43.4041 64.75 50.4682 61.9062 56.1486 56.2188C61.829 50.5312 64.6692 43.4583 64.6692 35C64.6692 33.25 64.5381 31.5438 64.2759 29.8813C64.0137 28.2188 63.6205 26.6 63.0961 25.025L67.1161 21C68.0483 23.1583 68.7474 25.4042 69.2135 27.7375C69.6796 30.0708 69.9126 32.4917 69.9126 35C69.9126 39.9583 69.0096 44.5667 67.2035 48.825C65.3974 53.0833 62.9213 56.7875 59.7753 59.9375C56.6292 63.0875 52.9297 65.5521 48.6767 67.3313C44.4236 69.1104 39.8502 70 34.9563 70ZM29.8002 50.925L15.3808 36.4L19.3134 32.4625L29.8002 42.9625L65.98 6.7375L70 10.675L29.8002 50.925Z" fill="#1BA943"/>
</svg>
