<svg width="24" height="24" viewBox="0 0 24 24" fill="none" xmlns="http://www.w3.org/2000/svg">
<path fill-rule="evenodd" clip-rule="evenodd" d="M15.7188 17.8435C15.9375 17.9542 16.1563 18.0648 16.375 17.9542C16.5938 17.8435 16.7031 17.7328 16.8125 17.4007C17.3594 14.9656 18.5625 8.76716 19 6.55343C19 6.33206 19 6.22137 18.8906 6.11069C18.7812 6 18.5625 6 18.4531 6C15.9375 6.88549 8.39063 9.76335 5.32813 10.9809C5.10938 11.0916 5 11.2023 5 11.4236C5 11.645 5.10938 11.8664 5.32813 11.8664C6.64063 12.4198 8.5 13.0839 8.5 13.0839C8.5 13.0839 9.375 15.7404 9.8125 17.0687C9.92188 17.29 10.0312 17.4007 10.1406 17.4007C10.3594 17.4007 10.4688 17.4007 10.5781 17.29C11.3438 16.6259 12.4375 15.519 12.4375 15.519C12.4375 15.519 14.5156 17.0687 15.7188 17.8435ZM9.26563 12.7519L10.25 16.0725L10.4688 13.9694C10.4688 13.9694 14.2969 10.5382 16.4844 8.54579C16.5938 8.4351 16.5938 8.43511 16.4844 8.32442C16.4844 8.21373 16.375 8.21373 16.2656 8.32442C13.75 9.87403 9.26563 12.7519 9.26563 12.7519Z" fill="currentColor"/>
</svg>
