<svg width="20" height="20" viewBox="0 0 20 20" fill="none" xmlns="http://www.w3.org/2000/svg">
  <g clip-path="url(#clip0_6875_82672)">
    <path
      d="M0.914281 9.42146C0.876022 9.42155 0.837813 9.41868 0.799996 9.41289C0.612877 9.38323 0.445182 9.28052 0.333751 9.1273C0.22232 8.97408 0.176267 8.7829 0.20571 8.59574C0.538025 6.47284 1.55387 4.51632 3.09906 3.02315C4.64424 1.52998 6.63439 0.581701 8.76742 0.322247C10.9005 0.0627922 13.0599 0.506331 14.918 1.58554C16.7761 2.66475 18.2313 4.32069 19.0629 6.30203C19.1058 6.38935 19.1304 6.48451 19.1352 6.58168C19.14 6.67885 19.1249 6.77599 19.0909 6.86712C19.0568 6.95826 19.0045 7.04147 18.9371 7.11167C18.8698 7.18186 18.7888 7.23756 18.6991 7.27533C18.6095 7.3131 18.513 7.33216 18.4157 7.33134C18.3185 7.33051 18.2224 7.30982 18.1334 7.27053C18.0443 7.23125 17.9643 7.17419 17.8981 7.10286C17.832 7.03154 17.7811 6.94744 17.7486 6.85574C17.0378 5.16058 15.7932 3.74366 14.2039 2.82013C12.6146 1.8966 10.7673 1.5169 8.94258 1.7387C7.11785 1.9605 5.41533 2.77167 4.09353 4.04904C2.77174 5.32642 1.90287 7.00023 1.61885 8.81631C1.59283 8.98461 1.50754 9.13808 1.37835 9.24903C1.24916 9.35999 1.08458 9.42114 0.914281 9.42146Z"
      fill="currentColor"/>
    <path
      d="M19.1005 7.68005H19.0947L13.4856 7.6372C13.2962 7.63644 13.1148 7.56046 12.9814 7.42597C12.8479 7.29148 12.7734 7.10949 12.7742 6.92005C12.7749 6.73061 12.8509 6.54923 12.9854 6.41581C13.1199 6.28239 13.3019 6.20787 13.4913 6.20862H13.497L18.393 6.24577L18.4302 1.34977C18.4315 1.16152 18.5071 0.981412 18.6406 0.848616C18.774 0.71582 18.9545 0.641072 19.1427 0.640625H19.1479C19.3374 0.642135 19.5185 0.718823 19.6515 0.853834C19.7845 0.988845 19.8584 1.17113 19.857 1.36063L19.8147 6.97091C19.8132 7.15941 19.7373 7.33969 19.6036 7.4725C19.4698 7.60531 19.289 7.67991 19.1005 7.68005Z"
      fill="currentColor"/>
    <path
      d="M10.0393 19.7436C8.09515 19.7404 6.19503 19.1646 4.57621 18.0879C2.9574 17.0113 1.69164 15.4816 0.937003 13.6899C0.89409 13.6026 0.869469 13.5074 0.864647 13.4103C0.859826 13.3131 0.874907 13.216 0.908965 13.1248C0.943023 13.0337 0.99534 12.9505 1.06271 12.8803C1.13007 12.8101 1.21107 12.7544 1.30073 12.7166C1.39039 12.6788 1.48682 12.6598 1.58411 12.6606C1.6814 12.6614 1.77749 12.6821 1.8665 12.7214C1.9555 12.7607 2.03555 12.8178 2.10171 12.8891C2.16788 12.9604 2.21878 13.0445 2.25129 13.1362C2.963 14.8301 4.2078 16.2457 5.79682 17.1681C7.38585 18.0905 9.23239 18.4695 11.0563 18.2475C12.8802 18.0255 14.5819 17.2147 15.9033 15.938C17.2246 14.6613 18.0935 12.9885 18.3781 11.1733C18.3928 11.0807 18.4255 10.9918 18.4745 10.9118C18.5235 10.8317 18.5878 10.7622 18.6636 10.707C18.8169 10.5955 19.0081 10.5495 19.1953 10.5791C19.288 10.5937 19.3769 10.6264 19.4569 10.6754C19.5369 10.7244 19.6065 10.7887 19.6617 10.8645C19.7169 10.9404 19.7566 11.0264 19.7785 11.1177C19.8004 11.2089 19.8042 11.3035 19.7896 11.3962C19.422 13.7195 18.2386 15.8358 16.4518 17.3656C14.6649 18.8954 12.3915 19.7384 10.0393 19.7436Z"
      fill="currentColor"/>
    <path
      d="M0.857131 19.3676H0.851988C0.758138 19.3669 0.66534 19.3477 0.578898 19.3112C0.492457 19.2746 0.414067 19.2214 0.348209 19.1545C0.282351 19.0877 0.230317 19.0085 0.195079 18.9215C0.159841 18.8345 0.142092 18.7414 0.142845 18.6476L0.185702 13.0373C0.187212 12.8479 0.263822 12.6668 0.398709 12.5339C0.533596 12.4009 0.715734 12.3269 0.905131 12.3281L6.51599 12.3716C6.70543 12.3723 6.88681 12.4483 7.02023 12.5828C7.15365 12.7173 7.22817 12.8993 7.22742 13.0887C7.22666 13.2782 7.15068 13.4595 7.01619 13.593C6.8817 13.7264 6.69971 13.8009 6.51027 13.8001H6.50456L1.60856 13.7624L1.57142 18.6584C1.56991 18.8469 1.49401 19.0272 1.36023 19.16C1.22646 19.2928 1.04564 19.3674 0.857131 19.3676Z"
      fill="currentColor"/>
  </g>
  <defs>
    <clipPath id="clip0_6875_82672">
      <rect width="20" height="20" fill="white"/>
    </clipPath>
  </defs>
</svg>
