<svg width="24" height="25" viewBox="0 0 24 25" fill="none" xmlns="http://www.w3.org/2000/svg">
<path fill-rule="evenodd" clip-rule="evenodd" d="M18.9986 4.10006L18.9669 4.07636C18.3983 3.65102 16.538 2.25954 12.3878 2.25954C12.3878 2.25954 7.36355 1.99661 4.85143 4.23153C3.52927 5.54619 3.00041 7.51817 3.00041 10.016L3.00021 10.2244C2.99664 12.7617 2.99046 17.1474 7.36354 18.2984V20.2704C7.36354 20.2704 7.36353 21.0592 7.8924 21.1906C8.38746 21.3875 8.66009 21.0684 9.04343 20.6196C9.17199 20.4691 9.31299 20.304 9.47901 20.1389C9.61123 19.9417 9.80955 19.7445 10.0079 19.5473C10.2062 19.3501 10.4045 19.1529 10.5367 18.9557C13.5777 19.2187 15.9576 18.6928 16.2221 18.5613C16.2983 18.531 16.4114 18.499 16.5526 18.4589C17.637 18.1516 20.3817 17.3736 20.8497 13.3027C21.3785 8.43843 20.453 5.54618 18.9986 4.10006ZM19.5275 12.9083C19.0382 16.4354 16.6252 16.9245 15.8479 17.0821L15.8479 17.0821L15.8478 17.0821L15.8477 17.0821C15.7849 17.0948 15.7328 17.1054 15.6932 17.1152C15.4288 17.2467 13.4455 17.6411 10.8012 17.5096C10.8012 17.5096 8.81794 19.876 8.28907 20.4019C8.15686 20.5333 8.02462 20.5333 8.02462 20.5333C7.89241 20.5333 7.8924 20.4019 7.8924 20.2704V17.1152C4.28095 16.1246 4.30568 12.5681 4.32075 10.4005V10.4005V10.4004V10.4004C4.32168 10.2667 4.32257 10.1383 4.32257 10.016C4.32257 7.91257 4.7192 6.335 5.90915 5.15181C8.02462 3.31128 12.2556 3.5742 12.2556 3.5742C15.8254 3.5742 17.5442 4.62594 17.9409 5.02033C19.263 6.20353 19.9241 8.96431 19.5275 12.9083ZM13.9743 10.1501C13.8421 10.1501 13.7099 10.0187 13.7099 9.88723C13.7099 9.09843 13.3132 8.70404 12.5199 8.57257C12.3877 8.57257 12.2555 8.44109 12.2555 8.30962C12.2555 8.17816 12.3877 8.04667 12.5199 8.04667C13.5777 8.04667 14.1066 8.70403 14.2388 9.75576C14.2388 10.0187 14.2388 10.1501 13.9743 10.1501ZM15.0321 10.2754C15.0321 10.4069 15.1643 10.5383 15.2965 10.5383C15.4287 10.5383 15.5609 10.4069 15.4287 10.2754C15.5609 9.35513 15.1643 8.56635 14.6354 7.90902C14.1066 7.25169 13.3133 6.98874 12.2555 6.85727C12.1233 6.85727 11.9911 6.98875 11.9911 7.12022C11.9911 7.25169 12.1233 7.38313 12.2555 7.38313C13.1811 7.51459 13.8421 7.77754 14.371 8.30341C14.7677 8.82927 15.0321 9.4866 15.0321 10.2754ZM16.4865 11.0679C16.3543 11.0679 16.2221 10.9364 16.2221 10.8049C16.2221 9.35879 15.8254 8.17559 14.8999 7.38679C14.1066 6.59799 12.9167 6.07213 11.7267 6.07213C11.5945 6.07213 11.4623 5.94069 11.4623 5.80922C11.4623 5.67776 11.5945 5.54627 11.7267 5.54627C13.1811 5.54627 14.371 6.07215 15.2965 6.99241C16.2221 7.91267 16.7509 9.22732 16.7509 10.8049C16.7509 10.9364 16.6187 11.0679 16.4865 11.0679ZM13.181 12.9012C13.0488 13.1642 12.6522 13.1642 12.6522 13.1642C10.1401 12.5069 9.61122 10.1404 9.61122 10.1404C9.61122 10.1404 9.6112 9.74605 9.87563 9.61459L10.2723 9.22021C10.5367 8.95727 10.669 8.56285 10.4045 8.16845C10.3384 8.03699 10.2393 7.87266 10.1401 7.70834C10.0409 7.54401 9.94174 7.37968 9.87563 7.24822C9.6112 6.98528 9.21455 6.45941 9.21455 6.45941C8.95011 6.19648 8.6857 6.19647 8.28905 6.32794C7.8924 6.59087 7.62796 6.85381 7.36352 7.11674C7.09909 7.37967 6.96689 7.64261 6.96689 7.90555V8.03698V8.29993C7.0991 8.69433 7.36351 9.35166 7.89238 10.4034C8.28885 11.0604 8.68536 11.5861 9.08183 12.1117L9.08236 12.1124C9.21458 12.3754 9.47901 12.6383 9.74345 12.9012L9.87563 13.0327C10.0078 13.1642 10.1401 13.2628 10.2723 13.3614C10.4045 13.46 10.5367 13.5586 10.6689 13.69C11.1978 14.0844 11.7267 14.4788 12.3878 14.8732C13.4455 15.3991 14.1066 15.662 14.5032 15.7935H14.7677H14.8999C14.988 15.7497 15.0762 15.7205 15.1643 15.6913C15.3406 15.6328 15.5169 15.5744 15.6932 15.3991C16.0898 15.1362 16.3542 14.7418 16.4865 14.4788C16.6187 14.0844 16.6187 13.8215 16.3543 13.5586C16.3543 13.5586 15.8254 13.1642 15.561 12.9012C15.4288 12.8355 15.2635 12.7369 15.0982 12.6383C14.9329 12.5397 14.7677 12.4411 14.6354 12.3754C14.1066 12.1124 13.7099 12.2439 13.5777 12.5069L13.181 12.9012Z" fill="currentColor"/>
</svg>
