<svg width="48" height="48" viewBox="0 0 48 48" fill="none" xmlns="http://www.w3.org/2000/svg">
<g clip-path="url(#clip0_7455_82246)">
<path d="M24 45C18.4305 45 13.089 42.7875 9.15076 38.8492C5.21249 34.911 3 29.5695 3 24C3 18.4305 5.21249 13.089 9.15076 9.15076C13.089 5.21249 18.4305 3 24 3C29.5695 3 34.911 5.21249 38.8492 9.15076C42.7875 13.089 45 18.4305 45 24C45 29.5695 42.7875 34.911 38.8492 38.8492C34.911 42.7875 29.5695 45 24 45ZM24 48C30.3652 48 36.4697 45.4714 40.9706 40.9706C45.4714 36.4697 48 30.3652 48 24C48 17.6348 45.4714 11.5303 40.9706 7.02944C36.4697 2.52856 30.3652 0 24 0C17.6348 0 11.5303 2.52856 7.02944 7.02944C2.52856 11.5303 0 17.6348 0 24C0 30.3652 2.52856 36.4697 7.02944 40.9706C11.5303 45.4714 17.6348 48 24 48Z" fill="currentColor"/>
<path d="M18.9269 16.0884C18.5073 16.2388 18.0965 16.681 18.034 17.0613C18.0072 17.2028 17.9893 20.4312 18.0072 24.2255L18.034 31.1244L18.2394 31.4163C18.5162 31.7966 18.9269 31.9912 19.427 32C19.811 32 20.1057 31.8496 22.9989 30.1338C24.7402 29.1166 27.3298 27.5953 28.7496 26.7551C30.1783 25.9237 31.4642 25.1011 31.625 24.9331C32.125 24.4113 32.125 23.571 31.625 23.0757C31.3749 22.8369 29.1425 21.5014 21.6059 17.0525C20.6772 16.5041 19.7663 16.0353 19.5967 16.0088C19.4181 15.9823 19.1234 16.0177 18.9269 16.0884ZM24.5794 22.1028C26.3029 23.1199 27.7227 23.9779 27.7227 24.0044C27.7227 24.0486 21.1326 27.9757 20.9183 28.0553C20.8825 28.073 20.8468 26.251 20.8468 24.0132V19.9359L21.1504 20.0862C21.3112 20.1747 22.856 21.0768 24.5794 22.1028Z" fill="currentColor"/>
</g>
<defs>
<clipPath id="clip0_7455_82246">
<rect width="48" height="48" fill="currentColor"/>
</clipPath>
</defs>
</svg>
