<svg width="24" height="24" viewBox="0 0 24 24" fill="none" xmlns="http://www.w3.org/2000/svg">
<path d="M23.4569 6.82498C23.1869 7.53822 22.8228 8.15906 22.3667 8.72277L22.3857 8.69756C21.9377 9.32484 21.4026 10.0496 20.7805 10.8717C20.247 11.5209 19.9647 11.8569 19.9333 11.8799C19.7953 12.0252 19.6993 12.2033 19.6663 12.399L19.6653 12.4049C19.6923 12.583 19.7903 12.7384 19.9333 12.8544L20.3334 13.2291C22.4737 15.0767 23.6776 16.3503 23.945 17.0498C23.98 17.1271 24 17.2162 24 17.3094C24 17.4724 23.938 17.6228 23.833 17.7463L23.835 17.7438C23.6589 17.8958 23.4129 17.9899 23.1409 17.9899C23.1109 17.9899 23.0798 17.9891 23.0508 17.9866H23.0548H20.4234C20.4234 17.9866 20.4204 17.9866 20.4184 17.9866C20.0813 17.9866 19.7713 17.8874 19.5283 17.7228L19.5313 17.7244C19.1772 17.48 18.8621 17.2153 18.5801 16.928L18.5711 16.918C18.1104 16.4805 17.7016 16.1123 17.3449 15.8132C16.1567 14.8645 15.2799 14.3901 14.7145 14.3901C14.6934 14.3884 14.6694 14.3876 14.6444 14.3876C14.4794 14.3876 14.3254 14.4304 14.1984 14.5035L14.2014 14.5018C14.0973 14.611 14.0343 14.7522 14.0343 14.9042C14.0343 14.9345 14.0363 14.963 14.0413 14.9924V14.9891C14.0143 15.2529 13.9983 15.5595 13.9983 15.8695C13.9983 15.9695 14.0003 16.0686 14.0033 16.1677V16.1535V17.1271C14.0133 17.1666 14.0193 17.212 14.0193 17.2582C14.0193 17.4615 13.9093 17.643 13.7373 17.7631L13.7363 17.7639C13.3492 17.9126 12.8971 18 12.4201 18C12.3181 18 12.218 17.9958 12.119 17.9882L12.132 17.9891C10.5578 17.9639 9.09752 17.5766 7.85631 16.9238L7.89132 16.9406C6.38006 16.1694 5.12785 15.1655 4.1737 13.9793L4.14669 13.944C3.24054 12.9342 2.3954 11.7933 1.67528 10.5903L1.60527 10.4609C1.1842 9.78718 0.748125 8.95883 0.372062 8.10697L0.312052 7.95155C0.159026 7.56847 0.048008 7.12321 0.00200033 6.662L0 6.641C0 6.21647 0.297383 6.0042 0.892149 6.0042H3.52259C3.54659 6.00252 3.5746 6.00168 3.6036 6.00168C3.85164 6.00168 4.08068 6.07309 4.26171 6.19322L4.25971 6.19154C4.45974 6.37553 4.60777 6.60151 4.68078 6.85354L4.68378 6.86362C5.16786 8.01204 5.68095 8.97648 6.27105 9.90059L6.20403 9.78549C6.68611 10.6004 7.2192 11.3019 7.8273 11.9496L7.8043 11.9236C8.33772 12.4735 8.75379 12.7485 9.05251 12.7485C9.06151 12.7494 9.07251 12.7494 9.08451 12.7494C9.23254 12.7494 9.36156 12.6822 9.43157 12.5813L9.43257 12.5797C9.50658 12.4201 9.54959 12.2344 9.54959 12.0412C9.54959 12 9.54759 11.9588 9.54359 11.9185V11.9236V8.6648C9.52259 8.28087 9.41057 7.92215 9.22354 7.60039L9.23154 7.61635C9.10752 7.39457 8.95849 7.20302 8.78146 7.03248L8.78446 7.03584C8.62044 6.89807 8.50842 6.71745 8.47341 6.51582L8.47241 6.51078C8.47241 6.36796 8.55042 6.23943 8.67244 6.15542L8.67345 6.15458C8.79447 6.06133 8.95649 6.00504 9.13352 6.00504H9.14152H13.2882C13.3102 6.00252 13.3352 6.00168 13.3612 6.00168C13.5563 6.00168 13.7313 6.07561 13.8473 6.19154L13.8483 6.19238C13.9513 6.35032 14.0123 6.53934 14.0123 6.73929C14.0123 6.77121 14.0103 6.8023 14.0073 6.83338V6.82918V11.175C14.0053 11.1952 14.0043 11.2187 14.0043 11.2422C14.0043 11.3968 14.0553 11.5421 14.1434 11.6656L14.1414 11.6623C14.2144 11.753 14.3364 11.8118 14.4744 11.8118C14.6504 11.8017 14.8115 11.753 14.9465 11.6757L14.9435 11.6774C15.2155 11.5203 15.4496 11.3414 15.6526 11.1389L15.6566 11.1347C16.2637 10.5584 16.8238 9.92159 17.3119 9.24447L17.3509 9.18566C17.695 8.7068 18.067 8.11705 18.4041 7.51134L18.4661 7.38785L18.9122 6.63848C19.0672 6.26379 19.4832 6 19.9723 6C19.9913 6 20.0103 6 20.0293 6.00084H20.0263H22.6578C23.3686 6.00084 23.6343 6.27555 23.4569 6.82498Z" fill="currentColor"/>
</svg>
