<svg width="24" height="25" viewBox="0 0 24 25" fill="none" xmlns="http://www.w3.org/2000/svg">
<path d="M21 12.2391C21 17.0652 17.087 20.9783 12.1304 20.9783C10.5652 20.9783 9.13043 20.587 7.82609 19.9348L3 21.5L4.56522 16.8043C3.78261 15.5 3.26087 13.9348 3.26087 12.2391C3.26087 7.41304 7.17391 3.5 12.1304 3.5C17.087 3.5 21 7.41304 21 12.2391ZM12.1304 4.80435C8.08696 4.80435 4.69565 8.06522 4.69565 12.2391C4.69565 13.8043 5.21739 15.3696 6.13043 16.5435L5.21739 19.2826L8.08696 18.3696C9.26087 19.1522 10.6957 19.5435 12.1304 19.5435C16.1739 19.5435 19.5652 16.2826 19.5652 12.1087C19.5652 8.19565 16.3043 4.80435 12.1304 4.80435ZM16.5652 14.3261C16.5652 14.1957 16.3043 14.1957 16.1739 14.0652C15.913 13.9348 14.8696 13.413 14.7391 13.413C14.4783 13.2826 14.3478 13.2826 14.2174 13.5435C14.087 13.8043 13.6957 14.1957 13.5652 14.3261C13.4348 14.4565 13.3043 14.4565 13.0435 14.3261C12.7826 14.1957 12.1304 13.9348 11.3478 13.2826C10.6957 12.7609 10.3043 11.9783 10.1739 11.8478C10.0435 11.587 10.1739 11.4565 10.3043 11.4565C10.4348 11.3261 10.5652 11.1957 10.6957 11.0652C10.8261 10.9348 10.8261 10.8043 10.9565 10.6739C11.087 10.5435 10.9565 10.413 10.9565 10.2826C10.9565 10.1522 10.4348 9.1087 10.3043 8.71739C10.1739 8.32609 9.91304 8.32609 9.78261 8.32609C9.65217 8.32609 9.52174 8.32609 9.3913 8.32609C9.26087 8.32609 8.73913 8.32609 8.6087 8.45652C8.34783 8.71739 7.82609 9.23913 7.82609 10.2826C7.82609 11.3261 8.6087 12.3696 8.73913 12.5C8.86957 12.6304 10.3043 14.8478 12.3913 15.7609C14.6087 16.6739 14.6087 16.2826 15 16.2826C15.3913 16.2826 16.3043 15.7609 16.4348 15.2391C16.6957 14.8478 16.6957 14.3261 16.5652 14.3261Z" fill="currentColor"/>
</svg>
