<svg width="24" height="24" viewBox="0 0 24 24" fill="none" xmlns="http://www.w3.org/2000/svg">
<g clip-path="url(#clip0_2258_9260)">
<path d="M20.6292 7.19059C20.4217 6.33412 19.8138 5.65882 19.0428 5.42824C17.6342 5 12 5 12 5C12 5 6.36572 5 4.95716 5.41176C4.20098 5.64235 3.57825 6.33412 3.37067 7.19059C3 8.75529 3 12 3 12C3 12 3 15.2612 3.37067 16.8094C3.57825 17.6659 4.18616 18.3412 4.95716 18.5718C6.38055 19 12 19 12 19C12 19 17.6342 19 19.0428 18.5882C19.8138 18.3576 20.4217 17.6824 20.6292 16.8259C20.9999 15.2612 20.9999 12.0165 20.9999 12.0165C20.9999 12.0165 21.0147 8.75529 20.6292 7.19059Z" fill="currentColor"/>
<path d="M13.75 11.5L9.75 9V14L13.75 11.5Z" fill="white"/>
</g>
<defs>
<clipPath id="clip0_2258_9260">
<rect width="18" height="14" fill="white" transform="translate(3 5)"/>
</clipPath>
</defs>
</svg>
